<mxfile host="app.diagrams.net" agent="Mozilla/5.0 (X11; Linux x86_64; rv:134.0) Gecko/20100101 Firefox/134.0" version="26.1.1">
  <diagram name="Pagina-1" id="9Y3-9VPN06QVXkcQ2wem">
    <mxGraphModel dx="928" dy="524" grid="1" gridSize="10" guides="1" tooltips="1" connect="1" arrows="1" fold="1" page="1" pageScale="1" pageWidth="827" pageHeight="1169" math="0" shadow="0">
      <root>
        <mxCell id="0" />
        <mxCell id="1" parent="0" />
        <mxCell id="jgpR0F6Lxqmnsb9gorQD-1" value="" style="shape=image;verticalLabelPosition=bottom;labelBackgroundColor=default;verticalAlign=top;aspect=fixed;imageAspect=0;image=data:image/png,iVBORw0KGgoAAAANSUhEUgAAA4AAAAC0CAIAAABKVdUmAAAAA3NCSVQICAjb4U/gAAAAGXRFWHRTb2Z0d2FyZQBnbm9tZS1zY3JlZW5zaG907wO/PgAAIABJREFUeJzs3WVAFF3bAOAzM1t0LLFLd6ooICAoKaGI3YGi2J3YiiJ2dychBgooIQoqdncHHdLlLrsz8/2AXZZQllLf7znXL2XqnjN174kZhCRJ0FLFxcUtXva/iSx8dHj1miOxT74VE9Jq5k7DFqye30uH/rfDgiAIgiAI+oMQmIBCEARBEARBfxL6twOAIAiCIAiC/ltgAgpBEARBEAT9UTABhSAIgiAIgv6o/6EElMw7PoClUIM15ExByzuv/h7xbY+HqqLu1HhuO22gvfAer7JWYo0IL/nlHOKWIf/J6q7KSlYrH/GaFwE3YboeU3tK3F8rOW7CdD0l/RnXqv5WALV+UYb/foRQW+DdCeioVHOlKVkufwjLGIIgqI62SkB5KYs6CG63CoqKyiwtYxsvv8CI16VtliYicu7LToeHh4cE91fHmrswN2o8W1GhcSruu7/iojNLqHfq5mBrpPhns3P87SZHFWERMlXU9C2ch847mJLTho8uccsQkdG2tHew1JH98z9QKj9dDvbvbWOixVJWZmkZ2/TyXx/zmfPHw2i9v1GGFZHjNJg6U+IaKa/yC2PYTN06k/7WURa9GBUVlVlaJja9JwRdfFfWtj8pOddmGlssvvuXMj+Kmd+e0PDw8OMzrGl/JwIIgqB/GqVNV6Y/cNlMJ0UEkHhl/qd7kWG7piY9K71xwV+v2QljY+ga1u4aAPCfPQhEmh2ahe/GrT1wAAAgi27vXX+52H7akv7VcaHKXZVFH8Eoa8CWSwPaIuLmw1Td5y7uo4kCnFuc/jw+InTJwOR3Z65t92A2e5cbJWYZYkZ+By/7tckWm4XIOT+tz+SrFIdx0zfY68kRP17HHtu/ZdyDjNM39/RSbJsiaAckzscRCqVuHvc3ypCuZ6CBxqan/iCAZt1o8Oy0TBzTMdKltihCksBxEqVgbXcIqB191/lb0QHJr8j7eOdS+PaJN+5nx0ZON6E2Pj9J8HESa0YE/Dd37heTbm0Vb3MhCiZOHiYAlJeeQkDB34oCgiDon9WmdR+osvWAMb6+vr5j/abMDz55dd9QpbK7Z2O+11QvkqWvwpaNcOqow1Jl6Zj3GLr49IsS0TqPqrSETRM8rQzVVVVYuh1dxqyN+dZmTbmYtrOvX7Vxg21UUUTKtNfYmj+M7dNBBgEAEJmHfVSFVZD1muCrkuYas4fuubTG21xdzaTv9scZN4P7W2ix9RxmXEwnBHPxMm/smOrd1UiDxVI3tPaatCUxvXlNrYhch96jfX19ff0mzlq5Nyp+U0/J1PBdFzIJABprvW20yZvIS9rq59JBm8XStnCfevBxsfgVS/xXwfbKgiJotHGW+HH/wOx+dsaaqsoq6obWXhO3Xs+oNxOK4lmJG8Y4mWmxWDoWXtOPPRO3aovMTwiPy1cevjNs08yR/b29B44LOHRhax/5HwnhiT9IAABZHDacpdx19RO+cJHisOGsek2cCKj6Hh04zMFEk8XWt+67IOxdZbN2gfs9fsvk3jbGmixVtn4Xd7/gaNEqWP7ztXYq2hOiyjlfL68c2s1YXVmRqaTe91AaIW4ZNhkh53N0kJ97F301VZamsV3/2Qfu5eENV9IIio6RHgXP+J7RYHY8Mz2ToOvpa2JiRFhyfoy6iuPmd7zCh/uneFjosJhMpor5/KTaE6/FEQqhmt1H+Pr6+o4dP3XhhjPXzk4zKL+359Cd6jOZSDvQW5XV/3gOL/v6Jl8nM01VJpPJ7h78ova4Fz07GTC0h7kOS5WlbdZ98PyjjwuElyH+dpOjinLPnZ+r0g96C1oVWCMjSkUDqHh/MdDXzUKPrcrSNLbxmb7zZjZfdDo/J2XfnAH2plosFZZOB6cRy8Ne1WnOwXNT9s7qZ2esyVJl63ZyGbUi4k15e/UKgiAI+v+nTWtA66HLytIRAGpeNFr1bu9In9XvDMct3R/cUa78bczO4Hl9X5XER84woQEAAOdR8NAxe8t6zA486sAGWbcPBe2cMIKISV7VldGOMYpCmb1Wh+kVk4D/bP+k9U/qTkQoFAr+/MARnU0RYY+mDtk+bbhlj0VhFxwX9Nuw9fTkvks7UgBZEL/Ax/cs4j4v+LSTFpp558SGzaP6pp9K3OHZwvpLjGXvYIjdyEjNwIGGmL8ViO/Hpy9nOk7ZMEKx+OHxDbuWjvyplHJ8kIpYEWC6w7eftS0nQeWtDf57CxuuPPXEpKGrU50WBp3opiXJzX52buv6UcM5sTeWdRG2MyLYp33+q5U8p20ZI5uXtDfo0CI/KcN7m3pINL15ksflkghDSqq2FgxR7n/wdV86g9qMEuS/2jH5lZbPzG0TJHOSDqw/NGsEoXp7m6uMWLtAZERM7jU9Qdpz2uJdViyQ8yBk204/73d7rp8cXn0IKAbmRtTKV3dPBQZvTtT1nbdtkSqVW0oxlUfEK8OmIiTSw/y9Z91UHhSwbaWNatXXxP3rVg18knspfpWtVJO7LqlnqI4kpaX/BN2oZMXXB3e/IIYOtjqSZFlGegmiZaBHEydCKSNTbTLxydVDjw/tKvSYHDhFXw4vK1c2qGnIaFWEv4i7c3dLqb2RaellJKAjAGWZmCjwox+e2xG+/TRj8NSNszUZ/DJcW63mIuA82zLUZ+MX07HL9m3oIF/+9tK2oID+LwpjYhZ2ZgAAUO0hW8LMrm6csPt7z9W7x5tRAAAAVe4gWXsAvhwb673oPmvQ4u2ruqryvibsWxs07FFWeOIGZ1kEAEAWJi7qMzqE023i3O3LtagFzy/s3jXD51lh3KXqKlqyJHmZz/CjZXbTVxzzNGQUPA3bEDzN5215YsT4tmnugSAI+v+uTRNQkleWn5cngQKSX5H3Punw6tBMKbsZfXQxAMjiq5u3PZAYfCJis7cCAgCw6dZVIc/Of9eO62MP9JIBAM/8WqplP3rIzqVD1FEAgJNZ6b2uK6KiXy3t2vUXjXJtjqFh5aoBAKgClxrmOwiCECVafWZ4mbMVu7N2H2G4hHqb6X5wNtiw8/M3PuhI4b89EhSW1WlJ8vG51c2INvYmfA+XLZtOz+g5x7BFTyWy7N2bVBzTV2eLvzjvc6VjQszyLnQAgIcTK89meMSxyIwBkzXFSWARaT1bVz0AQGnBUQQ0TE3K7iXc43ZeuXbuEB0UAAC6dTfX7nQTMKpIQBOUGFH4kbHs9jE/LQwA4GZS8th+7fVrr3k9xDiMKMu5lxVjxam509QD5wx1MldhIABgDEbzCo8o/UQbdufQFF0MAOBuJ5VmM+38iYSVLoPkkaZ3gXN7x9qYEtt1V09O1sUAAKBXL5OqHgNDjp//MGSOKQYAAHQ1DSUy9tSGpGFHY7e5K9U/U5oqwyYi5NzZtT6e47z17D5fdRQAYGPXTaOs+4DDWy5OiRij2lQaTtE11MXw9NRMHMj+vL5uxLhL6NAzrw70omWnZxFUXUMdijgRYmwNNYx7a/vurkujoqcZ1/sF2LoIG8f//vp9JSKnriZTvTympsFGCy5vCvXYEnt0mEbdE4DMi9y0+ymt14GQLUNUEACAbbfOjHTbGft2XPU/PlABAYiUro2bcuoxBMnRtHJ1s29w5lUk7diU/NN27Zl9U3UxAICtnQ3zh+3IU1vPznCcqIkC/ptDq8+kGcxOCF/WmQ4AAF69bWheLttOhj6euKYbDeBfTwWf+Ko8+uzp1W4yAABga2/K/+IQuG1vysitTn/qFzMEQdD/skaykpSUlEsNpKSkNL0y3pP1PU2NjY2NTcwtnQYvjaf0Xhtx3F8fAwBUPUm6UyrRzcNegsupxpV0cLehFd5PecMDAABMf9i2iMjt1dknAABV1VSnkoX5RcRvNlgfUZ777avQt4yith2NjcgYGLJQgEjLyqAUTW0NDCAystIIXlnJBYDIupX8ERi5uWrhNXvIwbVdXPSINyn3CsVvmsMrC/Py8vLyctLe3QlfPWbBxQIlrwkDxcoeq1H0PL07Cj7uKW3vZifBe/P0dRuNuaYrs+TwV2d3n3+awyEBAIBq6D3F39tUWiTtQOjdhvTXrEkZME0jfQmyML9Q5DByCtJFjtL3vIra0sEMJ5+IWNtX5s66EY6mOsZ2fcYv3nHhcU4zDyPVok9v7ZoAEGUnNwtK5atnH/ji7ALv9Y3kbMyyr7e2MOdhdAt+lJ0aX5N9AgAQKWkpBEdspi3u2SD7bHWE/HdJt7KxLp4uzCrBaYRauDsyOY9TnohRDIisvoEqmZmawQfcx8n3EQ11cC/5WRXAs9KzgYahrhjV0AAARFpaCpBVKoOWTKiffbY6QiFuaV5eXl5ebtaXp7F7p47d9hI18/V1qDlzESkZaYTkG/ouHazR4OcH98nN+xV0+74ewmp9RMXNy4paej/lhVhDjnivb6bkY537iBxlmR5eDtJVz1IeVQAA8NQb1z+SBr18Ogi/kksxnpeYlfFwTTcaAIAsunvzJY/p5tNdRjAd0/H0NEVz7935xAcQBEFQ0xqpATUxMVm/fn1BQW3HeSaTuWTJEjFWZuK3a623Cvf5/lnr75uviYucpFtzgycrcrJK8LLICXqRdRdBJLJzcQCoAADOt9g9mw5euvsmPb+MiwNA8KtImWZ9KJQsuDi92+zrgqcgxWhuwp2VXdqukheRkGAgACAoigIKjY4AAFAMAwCQJAnwnKxcnPdto7P6xrpLUak5PwigLF4tHv/LwcHmBwXbozE7Dtq4Y/MgVjO66mIa2iID3KkqqgoIpyC/ggSMNhhAwnBetHPyu1mHp/Q8MVvZxM7R1b3v0GG9OjLrlLEEkylVuy0MwwBBiBxG3vOtffrsTxN0GaT3PvQ5ZIi0cHYV+2n7r03ZkvHizs1bt29ei9k66fBWk7EHzm/xZotZCghNQ0tVOC+ioKJMJZ79EKTAv98FPCs9i6B2VlP+3bYQBAEUQzublqafv4sQz83KxbkfF3ZiL6y7DD03p5gErCarQPWMdLHytLTCqjc3U0qtJiwAW87e/FCll55ZgeoY6opZl4wgCEAkLbtZ0BtOa22ENbjXF1gZL6jZHCql5TTrxM5FVsJ0F0EQgKna2DYSMVmcnfMTUdJQr21RB4i8GlsK3MnN4wLQ9KBzPCcrl6BaaaqKHGUqS10Z5eXmFBJAhsjOyCYwYw3WL4qLyMvOJTC2pprIeY+pqrFQ4nFOXnN+MUMQBP13NZKdKSkpLVmyRJiDVmefSkpKTa8MlTe0d3XTRp00v8Q7r9m69nL/owNrKikQBAWoondwyByruptE5PVoAACyJHFxP9/TP60nrzgw0FJDjo5W3VzhEfCgWTuDyLoEnDjjJ0htUGmDP9kfC0UQQO00/cSW/vX6WzLYOmInkJj6wOBtI/UxgFCllTSNTHUVmt3/AKXUK2EAkDYbvIypea2Leznr5c24hMTk5OQzqy4c2OkadPHMZPM6qcPvUIxG7zjlUClISTHVLg2bLFEpjS4eo7p4jJq9Kid+Yd8xJ+et83Le4yFmD0MMq3PYEQQgIkE1vQvi/OpBZORlW16qv4kQRRFA6770wiqXusWCyGgpiLFBREFfX4FMTk39VpGSYeTt6UFe3piQkuaelw1YPfVkmhEyIiUn0+jl08oIa9C6zj4a0EMCAExCnqVnasSSbHCRILJyvy7jBseIJIHYZ3pjc5Gg3vK/PQ2QRkIgf7FmCIIgqKHGqweFOSgAQNzsU3SlRv6rx53ud2jNhqSeW11lEQAQKQ0NRXCTI2lgZd1ovRH33vlLGVj3zUeDfKsHGpCFjwi8uYNK6ZpdvTSbuUxbwdS01DEiHTA7W1u3vNMqIqXd1dXtF7W2CIoggCBEHoy8stKf9QqJyM/NJ4BiTerAy8stJCWVlaXa8MGIMFQtPMdaeI5dSFa8PTSu77L1OxLHHO4j2fSS1Ysrmrn0NmtsClH8+f69l7hpvx46wsyHwnIb461zZu+bVxm4hzGGoAggRYuALC+tP8ae5PzILSWBcvUuk0W5P/iIkoqSaH7zy13A1DTYKD8rPYcA2qhwfYU5RVUMBZaCaMLVmgL9TYSYmqYaRlZSVbtYt6zfMEXXSA+NyHx/5/07lv06fQOym+r2lLsfpXIRXUO9ZrYGNLqPrY6wZt3K5s5ubtJNz9hwSXl1NSnyYXpGJQByNX8jizKyKhEldXYjVbYNYWwNNsrLSBM9ylVZ6XkEvZOaEgoAydZgo3hmWiYOVIRFxi3JLaykyKkyJVFUVYON4c/SMnnARFAEeFZ6NoGxNdTgGCQIgiBx/LJqrjoHbUH2CQAAQLLb3KV9mekhK3Y+rX6BDa1LTycl/v2z574Ku0gRmZcC5wVHfaoCAACi8mcVoKmwBC9/53+NCLtXBXCikQattqvPa0uoqpNrRyw9+uyt2pe1VD7av2DZkfv5bfR2FkRWQQ78zMsRbqD8/q2n9Tu98d8lXk8XVAJX3Et68JPaybpj/WbJlpUh592FdQG7bwlfnoVIGbs6aKM8XlWb7CHxPWyu76TJ62JEmzHxrOcvsgmqqhoTBQAw5OQlyMKcXMFZRObfufWmfhHwniYmC8qcLLid9Jwn09nSiCrOLlDNXZ1Y+POomG/C85TzeL1Xp06DDnxuw859v46QYuTmqk2+On/2pfDNT2Th9S1zA8NeiPeSH1TVQF+Gl3Ut7rmUg1MnKrWTk73Ek7iEDK6ivr58W1w5rY6w1ejWLvYyVXcvx+UJtkdkx115zGf2cLGo/e2HYhgguRxOI3cQagdnRxX8RXTMN8GFQhbfuJJSIWnnYicJAMC0nV0MwNe46NpdxD8fHGzRsef6xzwAAKJg79KFWngjKkX4Yif+59i496SWk5N+/QT037xdQRAE/W2/qxJpUepZA1Huu2SOXfzyA8uPDI+eYUgBMu4LFjtfW7hm2PjyRb42Spxvd8L2HbjG6Xt0MRUAABhd7DrTY5KO7rttPES9/E3M7h2PTbz07196c+fu1642OkpStZkyIi0jg/DfXjkZqWQuhQBUqYOTlXrrPzZC5L26+ao68+E/y+aRvJwXSdcpVAAAhdWph7l8kyvADPxWjA8bdnjKUMriGb0N6Pkvrx7efead7rKxzWn4/B2qWfduzP0Xj2yMtJjtoFz55uKGra8VFNHy2rZAkgSYan74xDnIrMGdZIseHAkMy1Xuv6Ff/e6TjZchN/PpnfdFJAAAVL75QYLK1MdJ10sxAICElnU3QzmEJln69GxQ2NeSJROcDJhUTt67hAP7XzG9ZzuKW/35WxSLySuGXpwQNrlnbtJIb0ttWVCa+jQmJPwu33jajD5MBABAs+xhKxWRsHdrgp6fhXThk5CgU5ksCURk8AtJIpIKH3b6LS2f7m1Mz7y+e1Vspf7kCR6y1ZOb2gWJHnOWel2ZvW64X+nsYdZKVd/vhOw+/J096OgEc7GqD5ssw6YipFnPWN4/cuKu0aPwxROdNUHmk4sHdl/Mttk6W0K804iia6hLnktKobnv6coAgOzq3LViduJz0LlfdQWoGBH+XqsjbC2E6bNw1uHk4CWjFlbM628iUfD8wvZNydQe6+f1lKmdi2ZgrIdeiVq/xCinG5MoL8hKAzYzpjozEQCAhNOsANeY+evHTCMXj7RUqPxwdff6CxUWCxcPrh7FT+k4aeWIc2P3+o7izxvTXQPNfnxu795nMq5bp1ePkkK1Ry2ZcHLIoZm+Csune+ii2ffPbNzyktn34LQGnz2iSsswyOyUs+ExRSpUgEjodO1h3IyeChAEQf9ftd97QDEDv9UTTnjv2bYifEDoaHWUou936orc5nV7TgeM3lSBKehY9lwYtnSaW3WHSVR3/M5dn2ev2zm42yYpTat+czbvG04JTb0feHi0d8H+h/v71j5ZMN2BM8ZcWRwS5B9HkgDQ3Xa+Ouer3OpbOu/ethHjLolkMsnrRyQDAAAiMzTk08GeTa8BkXMKir6guW7TyU1TThbyGSwTh6E7YxaO6ChWs6A4pN1XHQooXX50pvtJXEbbZuDCLeuNJvfZwxPUzfH5fMDouvhAn2crgvwDv5bR1TsP27xxXZ8GryFttAyZhXGBIxbcEhkwH7V0WBQAAGDa0648WmdLRbXHHT5PrttwYsPUvTllOFVeo0MP3yPb5vVt8XCcuhCVPjvjLnXZtjv82tE1oUVVqCRTy6zb5F0zZ4+wrM7iEZUhm/a9n7f21DjHnUDRoPvIFTuXX+87MoEnqAXl8fiIose6XeaxK5eNeZz+U0qn28QDm1bYCzLkJncB0xp55Krc9uBd5wMn7yhF5LQt3ReHLRGcp00hmizDpiNU7b/niqRR0NbwwPF7S0gZzY7OE48dndtXR8y2XVTNUE+S+/innbO9LAAAkbN36kxcvSujb6CCihdhk1toZYStx+g09+xlheDgI5snnymoklA1sffdv2/RYEPR2Ckdp+9c/TVg//nA2SFUGaaavsUA69qOwLpjj0dLbwrafXDWsFwOjalv03fzpaXjLAWdLBAlr61XzhoEbwvZOPNQMS6l3sF5+rHFc/sKxkQhMj3WXDrPDtp4KnDc/hJSWr2D86yTy+f0bjhQjuYwYb7Xk62nZo85RgKAaU2NeRxs96deLAdBEPTvQshmjTOvq7i4uA1DgSAIgiAIgv4L2vRTnBAEQRAEQRDUFJiAQhAEQRAEQX8UTEAhCIIgCIKgPwomoBAEQRAEQdAfBRNQCIIgCIIg6I9q1Sh4CIIgCIIgCGouWAMKQRAEQRAE/VH/sQS06up4JYxmt+kj3vS8EARBEARBUHv4BxJQ/uOlZlQElfI4mCH4bDP+ak1nGoJKj7jI/e2izYYwjR0cHS21JP/st/DIrAM9GYgAitGklHS6eE3ampjBazC1HobPySIS8JJnalEEi6MUhqyqgd3A+UcfFtR+6BrPTdkz3dtKV0maRqVJKelY9p629+6PRj6EDUEQBEEQ9He136c4m4dG5d8+c+77xLl6KAC8JyFhH5HWf969IaptwOWkgHZYsRgQmR6zN/maUwAguMVpz66cPr2wd9K3q09295R3nLN7/2AcAACItKigTQnUPssCvKq/6odpdxNkyxTDYWsX9lRCSH5l/pf7kad3T3S58eVaSrC9FACcR4FeHuu+GgyZvXZBFzVa2deU0zv2zfJ8UXEveVEH+OE/CIIgCIL+KeRfx3u0xJRu5OqizbAKesMnSfJn0kxdhR6uXWlSwy9wamYqfxO2sJ+1tqIElSrB1LMfGXwtky+6Eu6XyIA+HdnSDCllE/fZZ14+32RHpfc8kEXUTL42pfYrzVTbjR/4ZD1EwcNDs/p00VKQoNFk2B3cp+y5k4c3iJVzebQsAmgue9IbTvsNInO/Gx1V9o/jiuz2+w22VERxbDRHdE7e46VmFKpldUHUqkqaoYnRum//WrtZ7pv13RiI7KCwIpIkq27P0cVo9lu/1E7nPFnRiS7Vcdn9quZECkEQBEEQ1O7+gSZ4AAAAiIWPj9rr0JDnfFCRdOZCsZO3o6RwIlkUM9Nr9K63OpN3n78aExLUm4xb0X/I9nfCjpzcR2sGDN98V2rQ1nPR4et9yneMnHEphwBUqqDuj9plZujV2NjYq8cnmTVW6Vtxb4W7y7TwQpuZO0POh++ZbZUfPqun+/K7Fe23x5isvAwKWv4OApqhk70G+jP1Ww4OAMnhcEhEWkaqtmsB3XLF/eKSl0G2sP4TgiAIgqB/y7/SBI9jVsMG6xw6G/pgXo/QKG7PnZ4KB1cKJvK/feOauc6ceWSJtxwAoKerVvp1u83no7/MNTXCAACcm0eOvUZ6bA/bOUkHBcDF2ZLeu+MUHJgKV48wzZw9zQAgvr5dhwJ+vY0TqceXbX+hPOFq7AEPWQAA8OnnpphrPuf04WuL7fvLisyJqnb28i6q6qgj0YJOpERlUU5ODg0Aglv0/eHZtWuTcd2Joxxb2NWAyHv1Kpugm2uqoACgXfv20Th8bOXwRbQ1U/t305OjAACoEoyWrRqCIAiCIKg9/SsJKABUq9EjzXaFnd2dew31PtRL4fuB2kmWM0PiZtbOimloa2DE9/xCAgAMAPz702f5qNEkZ42a+lxUc/Ao57kJ8WJumSxKirvPUfEd7CzMNVH1ibHFExsJ0nb+2ej5Ldk9AIiC0BHaoTX/QShyBm5zQnet9ZAVO5Ulq0p/5ORIoACvzHmTcGD50kSuzsSpPgoIAECu1474EPn5qw/7O231l9Hq3N3Vw2eI7whPY7l/pY4bgiAIgiCoxj+UnlDMRozq8v3Y1ihqv1E966ZlZNnr0KXDHM00lWSlJCQYEtozblQBUtB8TeTn5ROYCksZE8yPyOgZsMTeNSIrLZOPqWmqYU3P2wqIvFdQdGzslWOTzGmYzsRzT+I2DzFqTh0l7+EqW3U2m83W0O/iOe1kptnk41e2e8rVlJSkybBNV97lZr+5EbJurBX27Ohs745mvbc9bcdeBBAEQRAEQS3xDyWgANMfNqY7+VNp0CgnSdG/E5lnxrqO2XJPavCGs9fvP332/NmNld1EezaSBAlA3c6UZLM7VzZ/iWZCqBrWHl5evcdt2DCKnXYsYOvTZr5jimI++cTV2Ni4uISkuy++56al7BttKlFvHpqSqfPQGYEHop5+erjZiXNt6Yz98J2nEARBEAT9W/6dJngAAKo5MTJ1IF9ahS6aTpIF8WGxBXIDwsLWDJUHAACAf6TxRGZAFZjyKFGUX0gAdnUlJln2/WseAUzE3KyaljoFf5yawQfmwkpQXmluXhkiq6oi09ZFhCj0XrXCPXLqtvkHRyXOMhS/2hVVMHH09NJt5DfDz8ynt+9lKrn1sVQQ1BwjMhb+Y7svv37j2Vs+MGrful0IgiAIgqDm+JdqQAEAFGklVXlG3V6RJKfyJ4HIstlSNX/4+ex02DM+IPCat6xjOh3NZfAPd+7mCtrkMy6GJleKXaGJKDh72tLz48/fKBEsQ2afGWmk1WFebnybAAAgAElEQVTG1bK6a+Hd3zyol5dPQHR+a6pLUe1xwbMtqm4FBYRmtcWb4smKpLVDhw2buvfFT5G/lj19+JaHstXZMPuEIAiCIOif8k/VgDYOZdvZGyC3I3cdHa7WSyHvYci6Xen2vZgvEx4nP/luYqHDlJB28x2iGX545diV0kt6qZc/PRV8mt9FE7tXswKy7PO9e59LCQAAmfOhiCCJj7fj476iAKByxg7ddKVQnXFrZh312jLOm7ZkRi8jRsHzizs3xwG7tUv6KdRNhom8l4nx8RyuD4cEoBVfU6J1nrt+7Anvo8tXxvY57K3Qyu8yIUqDVy05mLx0tVu3F34jXc1VGdzct9dDjl78xux9YLL1/8AxhiAIgiDoP+Uvv4eUrHkRvcGCu3VemI6n7nQUvoieKH28d0xXDRkqRULF1GPu2Y+VZSmre7Ak6LJGc29wq+d4enBCdz0FBl1GzaLf8ujPd5eYUui9j+UTJEnyXqy2aDwJo3Zd/67mje943t1907w6acgxqAx5Lat+848/LSYaxNqGL6LH04/5KKJU0wUpFaKFIfaL6OtvouztuVWjXTqoyzEoGFWKqd3Z03/jlS+VzQkTgiAIgiDoT0DI9h5781fwbs02cD1iG/YjYohk03NDEARBEARBf84/1ge0hYisxB0LpwddEXQCxb/cvZ+NGnc0pf/duCAIgiAIgqAG/n/0D0TlaKlRh3efflO8dn4vXfzd2bXrn0i77httBsffQBAEQRAE/Wv+3zTBcz5fXLMo+MyN19k/qUr6tn1nBm+YYtPa0T0QBEEQBEFQm/t/k4BCEARBEARB/xv+f/QBhSAIgiAIgv5nwAQUgiAIgiAI+qNgAgpBEARBEAT9UTAB/UPw10GWNKQaKu8bzf3bAbVY1dXxShjNbtNH/G9HAkEQBEHQ/6Z/IQHlJc/UoghyM5TCkFU1sBs4/+jDgrb4Tnot/oMAY/mRkX8p80N1hu+8FB0dHRnoIfe/PTYfYRo7ODpaakn+g7vB+XJ59XB7fSVJGk1KSbdrv/knnhWLPciOLDzRh4HUJzEgtLw9Q4YgCIKg/6B/5j2gFMNhaxf2VEJIfmX+l/uRp3dPdLnx5VpKsL1U4/OTBI6TKAUTOwsiUlNSvuPabRVvcyHSBj16GwBQRb1MQx78rSjqanYZAgAAoNoGXE4KaKeQWoPIDB/nNPoC3s0/YE8PdTLz7pmduye4vih/ED/DSJwXwpLFRcUktePkA4FeirVFgqlZM9ovZgiCIAj6b/rLnwIlyUY/dM59s74bA5EdFFZU/f+ikAFS1M5rXlXl39k+ppuOPB1FAKo6Mb722+plr8MCBnbVUZSg0WVYJs7jNiZm8ATTiMz9bg2+iURz2PpF5Mvq/KykrRNczVgydJqEgrZVv/mnX5TW+RY8UfDw0Kw+XbQUJGg0GXYH9yl77uThdaY/OjSzt4WGPIPGkFPv5Dl1770fjXy5nRvnr4zJjYniNKeAHgSYUDD9eSlc0b/i33Y5MVDm8HNF1XESxc9OzPXpoiXPoDHkNSx6zzrypEh0D5osQ6L46dFZvSw05BkUqoSiTteBSyLei3ynnnttCltYYU613fih7ufqmypDTuRIGWqH5XfeRCzy7qQmQ6fLadqM2nGvTojVe5syVxcDlI4rn/PqT/ot3rOVHSkU0wV3hDFX3ppjgFG7rH3dINLGV/B0uTmF0T+ktFmbhSAIgiCo2dqlCT4/P7+Va6AZOtlroD9Tv+VUdzSUNu2gS354eHn32IEbPplO3HTi7Nkzh4OHCiq2+J/2D3YavfeT8YyDMTcSIzYMoF1b5u02L7GkuvkVYXpviIoO8pJHJZxXRMVWi946SJhPkcWJ81x7BcQifdaFX7tx5eicDt8OjXMZfOCzsJtjxb0V7i7TwgttZu4MOR++Z7ZVfvisnu7L71bUTP/5OKi3y9SQAvslJ+JuxJ9Z4VgWMcvde90TTisLAgAAANVq9KiO6PfzYSkiq8M/nT1zj6c22K+3PAIAqHq9rZ/LhFM/ugWcjEuKP73CpSx8imu/bW+qhAs0UYbkjwtTe005z++15nRs8o2Yo4vscg6P8pp/rUwYRZeZoVdjY2OvHp9k1kjFeZNlSKFSiNzo2X7HJSaevPvubfJWp6KI+cOWXq9ouK4WQdUGbDwbdniWnaTgLwx9I20KUV5aJl5fDqK4sBhIKyrQASC45WU/+fANuRAEQRDUTtojq503b96PHz/Enr2RGlA846CHFCLd73RBTe1e7mFPOiIpzXbd9uZngxWUXRnPxiQdt38W1nSVxIxXxyScd38XqVSN81dGpUdcbKTqkf9xczc6pjUprkTkL/Z0THNqYmV1ON93u0hiOpPjhTPgGYe85CQ1xkWWkCRJEjknfGRRxQFncgT1eUTWCR95VGFwWEG9Gr6W1ICSJP5le3c6yvaPLRf8hfd8VScKxWjhPS5JkiRRGDFUkaI2JlK4OSL/3AgVisqYy8KQf1+GJPeKH5NqsvihsNoR/x63b1fogx/1qyjxL1sdaA1qQJssQ07MOEUEVR11QRAinrHXhYbpz79TVXf9/LeHJ/h4950R8rWRCuTmwL/v95DF1CfGlok3/8+LI6QxVVffUXYakigCEJqiide80LflTS8JQRAEQVCztEsNaEFBwfr165tXD0pWlf7IycnJycn8+jzhwLQBixO5OqOm+tR8TBORlpFGSK7q8MBpZg165PFeXE/Ow6wG9NcV9vSTdfFxkuE+Tr4nzvgRsvDW9Wc8Jc9BzrKCP2F63t4d0OzbNz/wAQBkUVLcfY6K5+DaGVD1ibHFFenH+8sCAADnwfWUcobjIG9VQd9BhOXlY0MtuXPzKa8ZhfBLqM5QX2eJ3MuhiaXVf+A9CQ17i3Qc49uVBgAAVQ8TbpZIdvd2lORyqnGlnHrZ0wtSkl8KAvhtGQKAqrJVyK8Xdhy5nVpOAAAAqu05deYIGyWxeog2WYbVITAcvN0F/StRJU1NSbIwv7Be/SRm6n8kKuby7pG6rTk5yeK7a0YuviE9YOMKD2nxligvKubheQ8fVrosOxEVE3k80EfywY7RrmNOp7XtaDgIgiAI+s9rr1Hwzc5BeQ9X2aqz2Wy2hn4Xz2knM80mH7+y3VM4YBxBEIBI2fSwbNCXEwA8OyOHoGlos0V2hqamoYJW5WSLM5KeyMnMxjF1bXWRhmWMraGGEblZOQQAgMhKy+RjappqvxjKQhZlZlUiylqaIgOmEAV1dWlQlJ3TJo3wAGUPHOslWxATEldEAgA4KWfOfqHa+402wwAAgCzPyizGSyOGMyVqqfheqiByM3OE3Qh+V4YAUCzn7V/pzLk4zVFXSdXUaeisDaH3s6oam7MxTZZhdQQScnIiG0dRFBBEOzR081Ivz+7Ze90Xm/WXj43UFPMcR+T7733y+v2nJxeDpwzx7t1/7OLj18Mmav+IXrfvCb/pxSEIgiAIEls7joIvKCg4cuTI4sWLxQvEfPKRzf1VUQSjy6rqmZtryTbI9hBpedlG422sjo4EAABE3PHdiGCJemsQXQFJ/j5VajCVrL+G1kCYfXz7Kl26FBKTP2SM5I0zFzKkegYO1a5JrhAEBSiz//ZLATZ1SwhVNKTVWc2vyhAAhOm0Iv7L1DdJV2LiEhITwled37tpz/Ko2NXdxXtvlDhl+AeQBSnBw4cGPlTxO5Oyc5hBM0awUxR1zRVF/4DIuwzsqXT41Os3pWRXxX/wrVMQBEEQ9D+qHRNQJpPp7+8v7tyogomjp1dTra6NJgGYmpYaWpX2PYsAwuW5GWm5BKOLhrIY1V8oW0udgj/6ns4D5oKsF89IzcQxdS11DACAqmmpU/DHqRn82hkArzQ3rwyRVVWRoSCKmhrS5L3UtAoA5GsmkwXpGRWIsqZ6m73DR8bdd7B6yMnQqGwfxdCoPEUfv/6CFn9EWktLCVznSBnb2ik3lSj9djpVydxjrLnH2ADA+Roy3nXs5rURU+MmsppMvposwz8Dz4ya2WvksTKP7cknpnWRbVbOSHIKM1LzMU0jNeEoJsD/+bMKYHQGFWafEARBENSG2qsJnslkLlmyRElJqZ3WL4pq4e7Kwp9ejPwiaG0mixIuJZdLdfdwEGkUxzAM4BxOw1ZlRNHR3ZpWkHAhqUTwJ/6HqOg3pI6bmxEGAEAUnD1t6fnx52+UCKr4yOwzI420Osy4WkYCAOh27o6y3Fvno3ME04nMmEsP+Eou7pbUhttr4X5K9BgzTJ+bEhN9KTKhWH2wn5eccBLN2stNmZdyOuSzsLGYSD+3ZMrKCx/EbEXHv0QFzQm8lCFsLmfoerqZUvAqLk+cNvImy1B8+NtDfr29vKee+drMrpdkya1lfUYe4wwNuRkx/TfZJ+/+5kG9vHwCovPr7FnFtXlWZl2G7n0n7LVLZF44GV9C7+pk+4uX0UIQBEEQ1CLtUgP6J7NPAACQdFu0yjNy6qqB48jV47oqVry7vGVlWLnlitUj2LVZCMXA3ITOTVg/bUOlpwZWWZD5vdx80pL+OigAqK5f4NTDvXf7D1IMmuetj2WmHF2z7pnyoNNz7arbr1GdcWtmHfXaMs6btmRGLyNGwfOLOzfHAbu1S/opIAAARGnQioV7E1fO6T+jfOkQc8n8J2Hr11yjuuxY2ku2XqyIjJwMqHhw9vAFoENHEIq6tUcXVTF/BtC6jhllvnP7prWUEgN/P0cJkUmyvZevdr86Y6n3sLKV/vYqnC83T27beZUzKDywYQLcKFSW9z4iaNfTopy5fTqoSvALP14/EJQk6bLTWx0FAJBln+/d+1xKAADInA9FBEl8vB0f9xUFAJUzduimK9VkGYqNKHp/MyE+3cy2jGjWD6SKmysnbH1JcwxwIR9eOv+wds+ULDydDUVSSCLvZWJ8PIfrwyFFfw1Ie85faH9p8XIPj+/TR9ppILlPLuw/mFDZaVGQX6uGQ0EQBEEQ1EB7DK1vzjuYyEZfw9RA5dnBDFRt6nXur2Yoex26sL+lljyDSpdV6+g5bf/9/PrvD6p4ecS/u54CnUKVlGcbWHvOjhB5SxM/K2nLeGdjFSkaTZKp3234qkuf676rCM+7u2+aVycNOQaVIa9l1W/+8afFolsgCh4emO7ZUU2WTmUoaFn2W3DmZWmDl6yTJMl5fXiUhRKtZnS/zMjI5ryQCf+0xZ6OIDTrdW8bvly9/E14wEBrbQUGhSqlYuI8dkNcap3iaqIMidKXp+f376qnJEXFKAwFbSufuceeCt4Tz3ux2qLxHyvUruvf1cTy2zLkxIxTxJh+V7h1/oI2fCNVC19Ez38T1EhtM2jwxQGS5FweLYsAmsue9PonHFH87MT8vlbaCgwKRpfXtvSZc+RR/fdoQRAEQRDUagjZxNAaCIIgCIIgCGpLsG0RgiAIgiAI+qNgAgpBEARBEAT9UTABhSAIgiAIgv4omIBCEARBEARBfxRMQCEIgiAIgqA/CiagEARBEARB0B8FE1AIgiAIgiDoj/qPJqD8F6s6UemuezOa+bXHtlN1Y5o6JjEk4uffCuCfxnm5sYecVOfFd8r+6GZ5N2dpU5BqFIP5d3lNL9IyVVfHK2E0u00f8abnhVqG/zDAmEoxXHiv3Y4iBP3biIywYRo09SGh6X/tQQdBv/EfTUDbGv5hoy0NqY/utCvtz134ZOnLUwv6WmkrSNIlFXWsByw5+76isVBzY6eZ0SlaM5Ob/WDmZVzbONbJRFWGwZBhmbr4b7+V20gCVfUtZLgWhdZlzauWZlecpxvHBz4xWnRstYOM8I9k1oGeDGHRohhNSkmni9ekrYkZbZdgUDpOPnY5Ojo6Yn5zvx8KAP5qTZeGp0BNtEy/K1zRmRGmsYOjo6WW5C8/WN8+yPxjvRkNwqN2WPGU/2cDaSX+gwBj+ZGR3N/Ng8jo2Tg62ejJ/a/d4/6Fm0n7IwoeH53Xr6uukjSdLsMyd5+8+07e/9z+iXMeNk54u0BRCkOOZWTXd+qWK58rhdOFtzsUxegyKnpWXuPXnntdUuerMRXvz68c6WiqJidBpTLk2KY9Rq6K/FinRgPVGL533yjs0qypx1P/5woX+g9ol2/B/zeQBB8nMQqGAABQlmfAHrk8Avx8sD/g5IfOk7aM70wBmFp3xT/19MM/HRjqOjNFue/sdfM6yRU/P7tj5yjXT/wHEaM0UQAAIHnl+Wlvbked3LXt7PMSPpBv7gbIkusL3H32FVpPmL/LWYtMvX5oy8JeTwuupwTZSQIAAFlVmvvtRdKFY9t3Rn74SQJmi/fk88F5m19oTrmx0JJRfxoi02P2Jl9zCgAEtzjt2ZXTpxf2Tvp29cnunrJtkcohiuZu3uYAlJUcQcGP5i2Lqnsv26OSTwAAAP4uZOnu+xojg2d2lwEAAIRh3LHOZ0KptgGXkwLaIOJmQqQdZuze3xcH/Denl+x9qFUdIapopYX9+WBajkhNSfmOa/9+Jsx08unrk/9MQG3q799M2l/Z7WU9e218LWk9zH+ltVLFmyvHT81xv/st5vZWV/k//KOsFcQ6D38DZXkFrOjL/pmf+iIp8vSivqHh8y/Gb3RjCkoAkXGYETzKiFeU8fZ21LnAYeEhfqcTDw/SQAEARFboOOcxl6lOk+ftdDSQJ/JeRO3fETTkTtrFp8f6CtcAECWf4GCfaL/lSyP7nRmk9L9TttB/w9/+FihZ9SDAhILpz0up84ly/NsuJwbKHH6u5mPkRPGzE3N9umjJM2gMeQ2L3rOOPCkSfqS76vYcHSp78tUvsWuGWGvJS9Cl2Rb9AxOyRT71zc+IXTXAQk2aRpPRsBq28fq1FZ0odb4Gzs9K2jrB1YwlQ6dJKGhb9Zt/+oXop9zxbzt60Ohu+zOrMuICB3ZRl6GhCKCYLX1c73vlRSd9GIj0iIsNP/DO+Rgxz9NURZLGkNe1H3/gXuRUdZQx+GxlnZmIvCNedAAa/L1JFbH+bEzO62CqYId4H7f1kKToz7tTXazcK35MFCAMtp3fnut7+zMwzRlJVc3ZAP55W3cGxXjOzTJBqEVXJ2pTZHofySIEOw4QVFrHZeaJK8E9aNTOgS8bfq5eDOUJkzUxaY+D9T/UTmTud6Ojyv5xIucJ7/0GWyqiODZaUNxVafHrfR2NVKTpdCllQ4dRa69+Fz2tiKJHh6Z7dVKXo1No0qomLv677+Y39qn30jP9GJj+vDvNKiER3PiJqijd42BO/ZVzr01hC7MIqu3GDyJFhKfudJQwnH18/wgzBQk5U7+zn18fG2OhLCmt6RZ8T1Dqv78QmhHhFT9mIxHy366zokoMDPl+e/u47vpMSbqksonH/AtfBQVB5B72pNOcdr56cnS6m4mKFJ2hqO84+firCpF1EAWPDs3sbaEhz6Ax5NQ7eU7de+8HXrP0yb6yqFSvmlNGoPLaFA2M2mXNq5rC4H6LCRxub6AsRaMyFLSsBiy9+Ln2ciIy97vR69/EaA5bvwhPF96zFR2Ev6sxgwV3GxzFX0dIinUzIYnip0dn9bLQkGdQqBKKOl0HLol4X1F/K633i5uJOBHyMpO2TezZQU2WQaXLa3bxmXfiWXELTpN2wn+73oaOSDtufiPYNTznsp8uhdZp5TPhDZXzNWbNKAdDZSkaTUrZoNuwFZGffgqmNXkeciJHylA7LL/zJmKRdyc1GTpdTtNm1I57dS6Vyg8Xlg2x1WNK0ugyLDM3/x23cgSXI+/TPk9FivrIc9nCBXjvd7jIUbR8L1ZfMk2fh00UwcvAzlSK6ZJHgv2tfHewLxvFtCfHlwrXL3q7q0o9N1afiioNDMkhSJIkcg57MlD2hKvCOwNJ5IYOUqIrDzpd/7ZT9WiJGYVmFfS6RTdkCGo/fz8BJfmv1nahYlrTr/8U+dv7DTY0TGNyfPUdhftqi5M8xrSbtvdy8p2b0Qfn9FChyDlueV1zcVbdW2BAkTS3tneeE3L/c8b3p2dndJFEmUPC8mquRN7bzQ5SqJz1pL1RSclxZwL7W3Y0VcNqE1Ci6NosEwZFzW3R0Su3Um5c3D62kwym6LHvU+0Vy702mY0p+25eY6+o5Tpj8/HwiPDTR86k5NS73/wqAa28G2BOw1ScFxy7mpwUfWShu6W5sULbJaBVyTO1MOmBoUUiq8o66M6gmC17wiNJksSzn1678fhbCZ8kyfKwgc1OQImsAz3pwrXVbPTmLG1MekBoMUmSZFXag/ibzzMqiOpMqsUJaOnFUUxUbmBoQf3HZWMJKJF1oCcdUfCtTkCJH9H++jSGQf/AkISUO4nhwUOMJWl6/tE/alaFpx/3YWIynf22R8Rei43Y5ttRCmP2PZHR8JHRbgkokf8mKS42Nvbq8UlmlHoJKJG5z5UhwzIduP3e08MDVaja5nb9N915eXacDkV2cHhx9Yp/fyE0I8JfJKAfN9lSKYZW9vbjD978kJ72+spyRwVUynlXzXOVKDjuTce0LG1sB2+Jf5OW8SFpq48aRuu08qnwOfpoja00pmg7de+l5JSb0Qdm2DMxaZs1j3+SJEkSRedHKKESrnvTRMq8NMpXBWU47vha/befdxeZ0SgansuORyUkRB1b4q6G0cwC7gpvDpy0R/HRQV7yqITziqjYavH3v9deL0Tpp5T42NjY2AsL7WiNJKC/jVCMmwlJ5J0boUpVc198LDop5fb1yH0z7ZWoOlMSSpt7EJryqwS0qQiJ/KtTDOk0zZ7zdoVeijp/ZNUgY0lU3nHr65aez22M/259VyqqOPKCaInhOfdjrn8srjkx8MyzIzQodL1+gSHxKSnXwtYNNGBQNEZEZIl5HnKixypgyhbWNr1WXXr2PePLvSOjDamY1tRr5YLNfT/Rn0WR6TRmy7kbd27HnVzmpUWT6LQ4RZDP4WmnBrIoasPCq7dY9W67syzNaHpCoeAsaPI8bKIM6iegJIl/3dGDgcoPjSgmG73dET/ODJBHGa5703GSxNN2O9Mw3dm3RC99/s+fVY39zOC/32BTb2MQ9C/4BxJQEv+yvTsdZfvHCm4OJO/5qk4UitHCe1ySJEmiMGKoIkVtTKQwKSHyz41QoaiMuVxCkiRJVt1baIghMp4Hhc+1krNDZFGFMVE/a6YvMMCoNuvfCR73lbfmGGBAmIDyP27uRse0JsWVCALgf9xsT8c0pyYK7yf8t+usqIikjN7gU6m/Sax+8cwojx6ngkrXVv0QhRdHqaKNJJolCSv7e3sPWH+7WSkFkXPQozo9JIo/3km8dv3+lzKi6uYsLUxyYFiD52JLEtCqm7O0MYkBoaVkVeaz69eu3XiZixPZB93plA7Ln9a7rbUmAeUmTlVD6T0PZDW4j1bfkZkjw1Kzs7OzszO/v70TscpLnULRmxpfQpAkyXux2oJKtw2ufcxWvVxjRaN1FRz3sqSgAe4+QSmCY1MZN5GNSngf/9FgW+2WgArgX7Y60BokoPvd6Ch7UvzP6goelOkbVUGSFeeHSdcUZpMXQjMi/EUC+mmzHRWhWQcJC5FzY5oGxuh1tLqQiMITfeiAYjjnlqCuifdiVScK1WZD9Z4QOSd8ZFHFAWeE6yWyTvjIowqDw6pjLo+dqIbRHbZ+FlypREH4EAVUps/xmrom/sdTU3r3nHRGcCnj37Z3b5BGcuP8ldFG2xlEFZ/uy2iQgDYZYVM3k+qyo5osfig87fHvcft2hT5oeB610i8T0N9HyHu+qhOV2mn5Y+FyvDfrbCSlTRbcavYPlXZReXGEDEJz2Pb1l7WFVQ8CjCmUjstqd4Fzf5EphdJxRXUNaVPnIcmJGaeIoKqjLgguFTxjrwsN059fc03/vDFdmyLX63DtL6HypJn6FJFbNEnkXPTVorIGh2TgVe+2OclKdApIqa1uJElS3POwUY0koILH3qL7vMZ/b+MZe11oKNPvCpckSf77bT2kUSmzEVuin2dXNnHq8Z4sM6NQbTd9hHWg0D/lX+hVhOoM9XWWyL0cmlha/Qfek9Cwt0jHMb5daQAAUPUw4WaJZHdvR0kupxpXyqmXPb0gJfll7QAUapfeXuqC3ZHQ1FJGKgsLKkkAAJH75EkaouvsYiDo6CZh4+nEFO46WXjr+jOekucgZ1nBnzA9b+8OaPbtmx8EgzMQaVkZhOQZ+68Z2fz+cvzPj58WUjq6OavW9MFBFFy97OiNdMiRdQ+MjIm5uLh7swbBECXFxQQqpyCH8l/vH+3p7jnx5BcckZOXQ/CSojKy6RWIs4USUlJejk4Wxy7p7e7ee00yF5GTl0PJ4qLitthAzWayXr/OR9Q7dfxFZyWiIHSENpvNZrPVdcy6j9zxpcOc0NhtHrIIAETGjcR3wNTLUwevOUs4uK6HhyHxKjmlgAQAAGnnZRcTopY5CFrOaBrabIxf8KOoOd3zyYrcb18+C3z5/qNtX2NA0TMxoAFERlYGRTX0tGkAUGRkpUBlRSUp7oXQapihVy9jQZdVirq2GooXFogUEqrk0ttWUjCzurYGRhTmFxIAAMB5cD2lnOE4yFtV2I2N5eVjQy25c/MpDwAApFx8h2rzH4ZFfKgeoUbmRZ2JK1H08etfswRmOGb/lWsHa3ouA4CytTVpZMGPwjYaQ9FkhACA391MAACoKluF/Hphx5HbqeUEAACg2p5TZ46w+aMd7H4dIf4tIf4dadx3oIWwiZhitvRBRdm7zT2aPbTu11p+IZDlhUVVJMpU+mWfVvzrjRtfgaHPgNpdoFv28dAgP9xOyRaeCL85DwEAACAMB293RUQws6amJCmYzn997UYmZu3trlQluFlglr1clX/eT37IESyu2n/H4Yky0fOmrlg8cfUTs2UnVjtIi7uPLYKx1FQx/Edu/i9Gb6JKbBaNLM/7UUECgBnPOndlyyDZmyv6dlFXZJk7D5u9Mex+VuPjoSgmnTsy8Pcv38E3QkD/lH8hAQUoe+BYL9mCmJC4IhIAwEk5c/YL1ZKRQsoAACAASURBVN5vtBkGAABkeVZmMV4aMZwpUUvF91IFkZuZU3uponLysrV7g6AoAARBAAAAkZ+XT6AqLJXayZiyqpLwf0ROZjaOqWuri4zIwtgaahiRm5UjvJ8hCAIwtr2DQQuGaxD5ufkEqsJSro1AQkWlTcbN/AZJAgBAO26EJEkSIEgbbgHPyczBMbY66xeFjMh7BUXHxl45NsmchulMPPckbvMQo+qhSnhWRjbOex5oJV17lsjYrX/Dx3OzcquPIlnw8NCc/t2M1RVlpSQkGFKWq5/zAUk2K3+uujbPwlDIyGbprarW7XK9HZSQlEAAQDEUIDQ6DQHV/yZJkhT3Qmg1VFZeZOQ4iqIAkAQhznSyKDOrElHW0pQS2SMFdXVpUJSdU/1gp9v5jjQln4effc0HABAZF8/cqFQf7OdVO/SE8yUqaGxPC10VeWkJCQZDblhEBQmad5B+TYwIAfjdzQQAQLGct3+lM+fiNEddJVVTp6GzNoTez2rTs0AMv7ndZaZlEpiallr7jitrxYVQfcsgfn1MiayMbALT0NYQ2QVMTZONETmZtXfkps5TREJOTqSbJoqigCCqt4lnZ2Tj3OszdCRrryS53oez8crsrCJhWIiCx8ZjM5hx67c/7xx4fFGXBmMi2xpOEADBMPRXd1SSwAmAYGj1DJiq49yT99Lzvj+M2je/l0ZuzLrRDiZdp17KbOS3GpWtroJwcrLbsLIAglrv3xgFjzD7+PZVunQpJCZ/yBjJG2cuZEj1DByqXXN3QRAUoMz+2y8F2NQNF1U0FO8nPUkCUPfKw/E6T2wE1J+h+v/1kitETl6uRekWCcj6W6gXQaug8ooKKJFWUERQHbZ95W8DAABQlVRQSFKMFdskz0UVFBWQysIiDqI8IZYzAQAAAJFZUEQgCkyFNsxAuRwuAHQJxi9WiVA1rD28PGmkLXH7av9jAVv9HVdb1jxkUAQB1C7zzu0dolpnaURCXQ8FAODvdwzoueCx2uDVuzb2NFaWpJBfDw3rt6eZAVJt54VFDuHVHEqErtOlrS+hX5dm6y+EP6LBM44UvZQonUaNsty04mz4s2UWVqkRZ1KqDGaPcxJUZJHFsbPcBh2ttJsVfGp4Vy05Olp1faH9rDt/MsImIUynFfFfpr5JuhITl5CYEL7q/N5Ne5ZHxa7u3rK7Q3to5u+q5mv5hYDIqChLIviPnDwcyDeeJdcUY51dqDlGbVPCKIoAmvOa+PXudbNKVFaHKbIFfu6bN7kEgvz89vRNAWnCat/Di2emZuKoqhrrF9VCRHZaJh+RZ7MkRCOW1rL29rP29lu0IStmuuvAQ1NX9Ol5zLteXS3CYDAQksvhkO1aJQFBzfNvJKAAyLj7DlYPORkale2jGBqVJ9ImBxBpLS0lcJ0jZWxrp9ySiwdVVGaiRHZOHgF0ay5tbkZaDg7UaqaztdQp+KPv6TxgLrgf4hmpmTimrqXeJtUIKFNJESXycvIIUFNtQRampZe12ZvZEAVTc3WQ8vptCWktuH8S2S9f/UANO5lJ/H5Z8VCMOhjTeO9fvecDYfJT9fbFO1zKqaN+251ECINBB4D7s6n7JKLQe9UK98ip2+YfHJU4yxADAGAaOpoYkQqUrO3sqI0sgn++HH6/UmPivpOLXKsfOrwijEMCqUbm/Q2UbeXdz6p5y7SRVl8I7Q5R1NSQJu+lplUA4Xu+yIL0jApEWVNd8KTHjEaMcVgz91z4w5VSyWGPCItVY62FB4x7O+xcGua8J2yrv0b168MK7hN42+VSYkUoFqqSucdYc4+xAYDzNWS869jNayOmxk1s5xRFHKi6ljqKZ3zPwAFLeGVyi7PzK6jybCWptmrzasWFQO3U1YJ2+sm9h8WkUW26V5a0bna08qRlE+2YqJqWOoqnf0sX2QU8My0TxwzbpmIX09DWwMgKKqurncmv11f1dveEgGS1eRd3588eO32qR9cLvlrt2GSIf0pM/EIwx3QzpjTyGwkAMicx4Tlf0tW+CxUQRR9Tbj/FOwxx0RPGT1Hz8h+gd2zry+dpuLdZ3d0iORwOiTAYv/plD0F/xT/RBA8AABI9xgzT56bERF+KTChWH+znJSecRLP2clPmpZwO+Sx8WzaRfm7JlJUXPojV6oOyO3dWI78l3fhUU+dIFiVeSq7tGokoOrpb0woSLiSVCP7E/xAV/YbUcXMzapMElGJgaSHLf3U9WdB+RGTFXH7QWPAl8ct9vLz6rrvdvCY9qlVfbw1u0onQr4Ii4jw/dvIBadqv729usI0hMiJm9fHqPWrPizqvJkeUPPp1p385dyJJ8C5kMufS4ct58p4DXJqZwv0OqqrOwvAcMVqUUe1xwbMtqm4FBYRmVXfEY7t5dsZSL56+Ufu25op7O6bP25vygwQAkD8rKklUWY1Vk+yQxUmnLn7DRZpWRbRlt4K209oLof3R7dwdZbm3zkfnCI4BkRlz6QFfycXdUphkolpDfN0k0uKiL16MeklxGDda5BTFKyurAJ2lJuihzf985uRtLsDrHSQMwwDO4bRgr8WK8LfwL1FBcwIv1X5EjaHr6WZKwau4PJGsgfi+owcdQSUctn76w1+7wnR7uhuDT9EXnwm7FOAfd/XS1bZb9aBeF8AW3m1aC9XoP9pNtiJu+45Hgk9lkEU3A+cGnb70ooKOAIDpubkZgs/Rkc+EXRor71+Oy8Is3J1V2+LSpJh6euiSz8PO1JYRWRAXNHnxyafC5wLn2ebxKx/pLzy6ut/wLfv9pK7M9T/wqd73Glp+HjbAeXdwwfanpOHoCa6SjU3np51bFHztJ2uQvw8TAcTXk1MGjR6zIjJX5MLAMx4/ySJobA3lBo91XnZmHinBYv8PvWQV+i/4V2pAAaB1HTPKfOf2TWspJQb+fo6i9XayvZevdr86Y6n3sLKV/vYqnC83T27beZUzKDxQvEcG1W7c/7F31gFRLe/Dn5O7Sy2wdCohJQgYlAoWoihhd13sxu7EuHZgN3JVrmIipYKKDRZgJ90hze458/6x7LLkropef9/3fP6DnTPnmWeemXlmzswz49sdXLNphB9r8SBz9EtE4KHPxiZ4vqirQVuPXzP1cN89fgNV1/t7GmPpcUfXBjxTHxg0V9YLcWDR0/Nn7mdToOLxZwrw313fvzcdB5hu11E+NooIAIq9/hrROmTfkiFzqud6GFS/Dt35T4mVDvasQT7VaQnRkZGI4oTvHLXYXeav9To/fqG719cZg2wU8x+f3nko2fCvSzNthDUMC5Nv3nlfCgEAoCo+g4YVn+IuXyrCAcB0OvTppCe2A1j66WFUZIK60fy6Qz6qP3rN7IM9Nw/vVTFnQjd96n3Y/l2h/K7bVvkKt/nT2U8jHqZUQwAAzE3Mp+nyN7cuX/qIAoTdysndVkO2mQ6q07atGnycmJQPnaUtJpG2czeOPeF5dPnK8H6HPVUQzGzyhqkn++0d7Umsnudtxsp5djlwy7Ekk3UTlRAAAG7q4qxJnwjeEeK51IlMuX143Qng7sY59PxBTFKalrmessR2MVJRiQ0zYk+fuligSQBEzsipm6XqT3fdsOTDgwcfvtEAAJj1tpCG9Lu7kRGfUABQrpmLUyvpOfxsQwCg8vW14ze/UIB69boSUimxxwKrFQHK6zh4mENLLKoiagNXLAi8sXKOz4zSpYOt5PISzmxcG01027m0j5JEKg3vMX3njzy7+mgGp9eRIZKrSpwOnduzL0bt2xFjOVK/5OXFLZsfWvU3jQt5efvOBycnI3UFFAAAcBMrc1ZV1MZpm8p762Hl+elfSq0mLfFphQJQlfrkdnI+DQAA5S9zaFD++VFURDEGACLXyqGLubJsEjYHqsR/E7J+99PCrLn92mpyBAXvbh5YHyPXbZenbm1BYPG928/5qNrQueO/e9O4tM5EGrjtzA1jgwdtG+jNX+LnZoBmPAretv2JUu/9/q51I1f+cG/zs6B6Y7ZuOO82a0Nvx1cTRnTRoz/eOHkiIrX11ItruisAAABuP2vd8NPDtg8bylk3zVWX/yk6cFVgivHEvZPMWmZnK+k4L2BIyIi/fb0Fq2f0MgSpj87t2no23Xn/oprLycoerpsQkGS59O7SjnIAyHlsPjAxpt/iCdu73FhoXXu4q2k7lAm6MCFk394HdFnW69jzZ6I+YA7Lj6xwql2Ih5Wvruzf+x5U5H64f+mfq4mVFlNDNvdXQQDA7WcGjDo77ORoh8yocT6dWnNB8efHF4+fuiOwnDvPt8FxOMGb54mVmLmNpaz9BAPD7+G/PIJfD+r9VmcWgpAdAl41jBZRmnx20YAOhipsnJDXMHcbuyniqzhARfWDBaYYu//J2iiY1Q8WmGIsUfAYCGH1p4uLPK005QhSSb/TmL2Pkvd0I8nOOz5JBqLfOsHNTEOeJOV4xk7DVl36IBGXFEIqdW83Erde+bzRUGqCN5s6NWzbZNdd4sDwsCzp5LRupjw2wVIxcp0WlPhgpQ3O9j5dN0jSDweihxDC0tdnF/nY63NZJIdn5DRifXithoQKadQA2D7BksFFBK83diQAqjP1ZsOQLYKs2zsmuJqpy5EsRR3rPrOPPq0N7Fx5bVzjLhqqOTHyO6K/FF8YropyB54pkCUOKJV6rL8qSljMj6uJxiLIjN3u191CS4HEWVwDey//4xIi0rkxAb7WmnI4oaBj67PyempVTtgsO1UWW8UpoG610sUPtnibKeM1B7Nbzbn7fQGZGg/DxH+xul3jEz6i48bXAjp9fw8Wq+eBTBrCyvNDOIQwflRV9BRtwnTBA5EEzTUEqdC5R/s0CJ8NcKvlNfFdBe+3OBKk09YPte3i/RZHgui06Y0wzFLBiX4svM3CR2J10QUn+rHqhKyi8x8fmN7bWkeJRbBVDOy9559++a1BlJiSsAnaKEDVR12sH0Cq8s3pqV1ac0mcrWrcddLhZ9+qEnf3NZAn5XXGnK9NW/byiF9nIxUWTsgpa5t06D075AsFIYRUWmD3xieNWOu5cdUySChDZ0J/exk0z6ejkZo8geFsFcP2/ecee1r3OoDKyEnaKG6+8OGPROiR0pnIICGsTo3+e3w3Cy1FFinHM3YauuJ8I5Hyf6q3+WnK3l9aO7JLGw0FFiGnbtZ94q672XW6/cqPV1cPdzLicQhSXsPcbfyWm+l1ra45O6y8Nk4VqwlYBMX/Qbmjr9RWSOWna2tHOJuoyRE4h2fsNHT5+dc1gQDpoluzLViKLpsTJaJwFt2aZUbKtV/xSFKRTdmhVAQv19gKKxlBcI6yrlX3setC35TUdla1ge4RjKWkZdZ56JKgZwV1LhvIuLN3plcnY3V5AsNZStpmLoMXHHuc18j7hXFAG16bwsDwH4PAX71ZnYHheyiNnGThebbt/tdhE3X/mA0iDAzfg+Dp8naOO7V3JkdNM2SMmOG/hR+/zM5pK2fNs4dLLf9PXbnL8D8P0zsy/Fko9Jw/14m6sW37/fL/WhQGhh+CzrgX90l9yJxRjPfJ8F8Ds85tOPhWbdDiSRaM98nwh8F0kAx/GFibqdvnWX/dP3frs8ajKjMw/NmU3L+daDZxloeMu0oZGH4VMO/a0mVXofu6gIY7QxkY/muYT/AMfyCVzzf1dF1XNi3qzkYXxf9aGAYGBob/g9DpZ0c4jLnjePxRiPhuMQaGPwfGAWVgYGBgYGBgYPitMLMiBgYGBgYGBgaG3wrjgDIwMDAwMDAwMPxWGAeUgYGBgYGBgYHht/I/5oAWnfLiIGzPEwVSNrYKXqyyIVjdA9Na7Dp22eB/DVs9zKWNlhIbx3C2kpphv30f6t5CUn19ghpGOv797jdfTvLnUPH67AKfjkbqCiwcI+W4GsZjzuX9ln3KVWHjebjahOv/+bWWsDjh0DQPWwOePInjpLyKlvns6F8lVPWtaboYZ3BIxQ8+T6cFdmcRNqteCKSnZWBgYGBgEPE/5oDiWm27uHa11sK/K+IEP3amAY4IQVGcraRp4jhg3tHH+S3sntKpxyYNW3vhi7aX/4ade/fu/Hv94pHtletWAcIzc+na1d5A7j+ImVHx4eLKoU7GavIsDle3XZ9ZRxIKG/H8ypN29VbH2D0PZNT/kc57uG+qu7Uul8OWVzdxGbH++tdG/CYqO3yaJQs3mBnLb/gjoJK2jRq7LbLAbMSSzbsCd2/fvGa+rwWnRhn8jJgdE3tZ6ymzWXKqrToMWHr+XW2w0JJgHw7SEJQ7+srvC+dEZcftndannZ4ym2ApqBt18pl3/GmRWE/8hwtM8foCElbLEup4b1V3Vw2edvCBoOOEFVt27929beOq2R6tRCH8Kj9dWz+2m5UOl8OSU9Fv5+63JSqljpJlq8T/kOZV1BJIs0P47eWp+V7tDVXkWHKqrTr4Ljn3pqypvBgYGBgYfg1/zl3wLYKC+4Yo9x97FDcdum5BTzUECsrzPj68GLRnYrdbH6PjNjjLN/EApAUUxHBMdk+R//JhfLmC9+Erh4Zxm0pDOCy6HLPoe4VvAejMf/26jbiAdZ+2Yr+DRuXbq4HbpvRKKrsXNdsCBwAAurIo80N81LlD2/dFpjTm0VUmBPTttea96XD/LUvbsLMfnNy6zrdn+qVH+/qoIgAAyC/NS0m+e+Xk7u3nnhcLgHKjUsBvCY+SBTrjD17c1ZNd76eCiFlu3odyrUb4b1lqxsl78s+OHcO7f6YeBw/VQQEAHNclIRfHSS4c0xmXls79V7mtye+y8m+3F/Xw2JFuNnTmhvmWytUp94J27fbr8bIiPmKaMQYAgEWFRYDXZ+2BSda1IqFKZsaSEaKp1MeP0hDLxafPrbWtJzjMPu/nOjxUzmf59gturVjFb6P2rlreL+bjlfj9HioIkF6J/z3SVPTzSLFDQL0/MKT7zDh1r9kB/jbcoufndu4a2f29gAlUw8DAwPB7+Y+vAq2BLni4Z5yLkQqHzdXvOGzTra9XxqniBjNjZb3Yt+zswFp3hdX3eH79y6cFaeGrfNvpKJCkol77oZtvRq+wwclue1MpCCGsjpmhj9W5GR5WJW90YiNKA8/UXLhMfd7ZhWT12J9enRaxZoCdriKJIqDO7bp00bMTc/vbGSizSbayXru+s44kiK+HrgqfoNbY4IaJiwiroqdoi5MQDpvfSt6LTGWEDNfDVXvv/yD+L5V2eqAmrtb30Mc6FyhXx81tjYEm76xvGv6TJRY4q1OA+PZjOuOUDw/TGH35G4QQUh+2OpEAwZXNPZecP7/ACmf12J8uqWQ6J8iHi+mMChXfR13xeKk1weq08bUAQgirwsbzUICwtR3H770Z6MPG9GfE1LlgvSjIi92IigBhty5RACGkvux2ZWG6Yy+L61bwaV8vLmG26FHjF7VTKSe9NeTar4qvqBWy8Mmh6R42ulwWTipomnfz23M/r7YQldfGqWJq4y++urDI01pbkc3hmXabdiKxVDJT+lvSmcUDHYzU5ElSXqNN1zGbIlNEr6fzgrwVMO3RF2utrzR8oi5Kuu6uucW79MwATtNXMlMft7k0eo95zQXxkM440IuF6U2Jrr26u/DMICVUYdC5b7JUorCU70L8e1toyJFs5dbOEw48uDhVF61zG3h1SuTGMV3baCiwWPLqpi4j113/InnZPJ0Xt21kJ0Mui5TXsu637PL9nd3IOvZWmnxmgXcHQ1UOQXB4Rs4jNkSnC2oflqYiCGHV52trhjmbqMuTBFvFoL3v0tAPdW9U56fHbJ/Ys62OEptgKevb9fc/8axIfE+7FDuEZeF+2hjX46D4ffx327vI4cb+96ogAwMDA8Nv45c4oLm5ud+Vns44PVAdJY18A85GxUQErehr2bmLLYkZ+cfJ6oBSmc+iwsPDw6/tGqKHNXRA+a+2uMij3A6TAq/ExEacXuNjb22hgzXngMLq+/NMMKLDhpphC1ZFT9bG1MdsWeusatB9xpbjZ0POBh05HZdV80hV4lZXZYznOC3wcuy921cPzumigXO7bk0SikznJt6MCA+/ssKNg6p6brwaXkNE7KuCGknpvOSYiPDw8OvHJ1ni9R1QCOm865OMCeWee9/xIYSQSgsaoInrDDmTTtVJ9sMOqCBxrR1Bdt31RSK/kgvDlTHNSVFVEEJY+j4uKi45uxJCyE9Y3tABLT0/jItpT4qUcBUESevtCbLLzi8UhJDKfBp9K/5zsQBCWHpmQEMHlJ/xNCo8/PqZWfYE1mpE4DWRjiLvfSyhYU0lsb1OFUkoJeeIB4uwW5tYV1fC37JDhmuTbebcrvUfqdTj/XmYou34HSHh0eEh28dYy2M8rxNpoiJXXhuniinbObS3GxZw8tK18/tmd1FH8dZTIotFOVQl7+yuinHbjVx39PyVS8E7p3fWwAgjv6s1zg5dVZKXkV0sofmKmJmtMHnP4zk0hBBSaYHdSdJ520cK0tVl30qr6lVe+ZeHkeHhYQfHmuCEzbRT18UqeJJaJSzv0T4crNXsO7UNoezSKBVUeURoqUyVCGH5/UVWJKbhNv/Y9diYq0cW9LK3MlORcEDp3Kt+xiTbxGdNcFTcvRtnNww2kyNrSwip1BNePJRjPnzr+ZuxUSFbRnW0s2yF19obXXB1vD7GMh20ITgsOjJ0/wwnVUzeecsrUQ1JUxGEFfcXWpK4Xu9lx69ERV05tqSXDkZaLrovnkXQedenmLJI/Z7+u/+5dOX8kVUDzeRQ5a7bkoTWJM0Oq2NnGmAKA/4plDCVjIO92LjlsoTvnLMxMDAwMPwEv8QB9ff3/x4flPq8swsL058SJfIVSm/PaYMDzNj/nqwOqAj+48VmeAMHtPrBfBOMEK+BQFh+Z44JBppzQKm0g+7yiIJ3kCgnwauA9gQip2g06NTXBv4OXRAyRBXXkVjYofP+Ha6Ba4y+XCyRrDJ0uAKmPSW6uaUW6uM2F7KhAwohXRzrb8VW7r7rDZ9KDRqgSbT+S+wW1CJ4dfiv/p5eM4I/UfV/apaK0OGKQj+l7Mvjm9E37rwuoAVJ6+yJOmtTQhpzQAXJ6+2Fvg+dmxRzI/pmQmolLL8wTBHTmtygvI06oDWlzDrozsLbrnjWwBkQJK6zI/C2yxNqn6I+bHUiEaVRl+ubAYSlMbOMCfUhZ3MkZCyJWe/bq//6OFHq8oiJ2ijH87hIi5XXxqkiiFzXnaJ1ZjrrlLcyqjTgH+Esgc47O1gVUxsQnCWu5cLQUdoctf5H0uqoiCrNTfv64UVs8Kr+RhwV57UPSiSURFgPmNjHQpVEAILK6zmM3BKbVbeqhap025PSsAbp/OuTTViqXZZcTs4pqyzNTrzg78CVs1l0V/gC6ZVYenWcBqrQ50iGaNpTEDpSEwViB5T/YnU7guWwIUms5OqXa9uTZMeatiN497cjgZn6x4n8QX5yQAcCqXVAqxN2j+jda/410TSBH7/UopH5VJMqgoJ3p6b07TnptKj01OcdnUnMZP79Gon4z1fZEITN8nhxnfOTAzrJKZjPv1MFpduh0L4slyXw6aJ3925E33z4sYSuvj3LAJMbcOYbZGBgYGD4XfySXU/5+fkbN27My8uTLXn1i/hEPsexu3i3pbzzCF/jltuzRmcnJKQgrd26mYg2mXE69Xbl1Ss6rP6Wm5WVlZWV/ul51IFpvotvVLUaObW/Ss0WT0RBSRGBfDO/tSMMGuxVq34cdbtYrrNnV7mqSiFV8q59nFn5cbEvGztp8yMgSq7rji80frRy4uIVU+ddV51+dJtnw9t9MQu/I1euXd4zovV31SwsKyquRrjKXJRKOTPdo5f7sN3P+AhXhYvAosJiGU6I0MWFxTTKVeai1fc3effq1Wf+5VwaU1ZRhN8Ki1rkLBdmMWiUA/vVromzTj78nJv79cWNwzNG7XpNINXfvtXfkkp/OrbmaKrV9KUD1CU0pOC2LDTqyjIXVs3fpJ6hNibIzy2UlI+w9/VuXVPBiEaP3vZ42fP4VwIAAKh6GH6riN11cD9NUaaIsm9QRnnulb90JbUNc04PNzY0addtzK7PTttuRix3VKgRq6igiBa8vv9Kf9yOkGvXzu6Z1jb7/MI+vVfcl/EMDKLaZ++tsyPKDvi21ZBnK2jaDA1C/ELCAzorACBLJQo+xD8twK17uIlKgKh093BkiXVEp9268RpYePRuRdXYcSXV2t3dlE6MjcuHAICKZ0+SKJXOPTqIdkvgbXr1lNy7SdjPDI6I2uIp2uOM6RnqYXRBXkFdG2hSRQAzHb0/LPqgeD8mqm2oT8L83JoMqM9Rka+hmdeAdqJaBLjl0kdlJa+3dCGBdDuki4uKaJSrwkUFSftH9e7Ve+LJjxTCVeYiVHFhyZ91WouBgYHhf5pfdTRB6IMuWbJETU1NSlJYkpdXgahoatTuf8NatzHCwLsWkoXOy8mjUQ0tjVovAVPXrL8pk/94lYPuqpo/ELaO8+Tjh7f15ooHZwRBAKbt7GLS8KgELM1IL6K+hQzjhdT9AZFLz6IAIFqoIHIdl51YHu2wdKPAevGdgG7clj8oX3cEhhAC8D0vqT+AQwjB9+XQDJj5rODgjFFT9ox3OgABQmp2HLdh+ZA104IIsp4VVz3avzcO7XFgonVdzcP8x4fXbTge/uRtZlEFn4I0xRcgHevcRYuwDFrV7sVFeFqaJB2fk08DAGBBalopoqavy5EiKKLSZ33o5SkFqS+igw7N6eb6+nTYzn7aKAB4u3nXX/zF1jUzVBYakeeAXrq97P33br7gf2lMw9lEA2D+zeWDJpyq8lgfPL5ra07px9vHAjaN7A/+jdzSq/bxpiuRzsvOo9HWWuq1ts/R0FASP0llpGVS/I9r2iusqftigsjIpoEGUpiTW42qaWnUtgFUXUsdBUW1rytJOrNx3YFL91+lFZTxKQhpQTVoXf++3yZVBACo/Hhl69rd/955+TW3pEoAIS2ohkqiDOj0lHQaszDQafbA0vfaoTD3/yDu0fgr6gAAIABJREFUBAMDA8P/v/zCs7H5+flHjhxZvHixtIQ0TQNQd9SALXtDPYT1ByWKqh9nE7eafGSLjyaKYCwlTSMrKwOlhmMcwlVu1OtDEBSgPJ8dlxZ1qqtQVNW00WMlPwgseJuUWoUgIP3Z80yBQ8utEiPyqipsWFRQRGMOix9XC6tM8DK/kEZUeSoyjMyoMk8FpYsKimiWV1AxHQQAAKDsQUEJosJTaalldtzAa+udPsu/vPmQB1WNzI1Uy097zwBq2hp1/czy2GP/fFTwWDtAu86LqTc7fXvOj9cZtHr35p5m6nI4/HRoqPfeeu/AsDrVjiAAQRAJBchimSwDh74GDgAMHDVxlL1H+3mTlnu8O9pXASDyOmZWOnVKZOztY7fw7qvEDwKgJnWewn+8edq2xHY7Xp2e0QoFAADHzj07Ei7Wy/x3jXy2zg6XXokQQFCvKdRpCSiCAMLO/9/AwZp1Kh3h6Bqh4gfrqKDO83T66bHdx11juy/edK6/jY4iAQrOT+q2OktmFcGi8Fk9Bh4td5y14dSwjgZcFlp9c4HzrHt1n266EqTZIaqsqoLSKfmFNOGy/ZNgOwAAgOqY/AKIm6kqMS4oAwMDw2/jFzqgPB7Pz89PejpEUVWFgMX5BXzxWiH15cMXiWENQREE0LTEqFP9rbhCZhcVVVXnoXRmVg4NRB+mq9JSsihQxxdAVcy79vb4vi/XIvkUDAzUwM1KeTMHR/VfN4jRqaenzQjBxwSH8gKGLZqwu3O0v1VLubeEeds26L+vklPp3sY1KoAlSS8/Qc0ubTVl0AlmaGWhSEUmvq4CrUQrhIK3L5IqCQsb85ZaAQb84pwSlkYr6w6tAAAAlEbfelTN7tjeqo4VV969cC1brruPu3KdqqA+XD77sFxv4r6TC7sLPyDzC7FKCOpG2YIV2VnFEGgIH4X5mdl8RF1THQUAIKr6egrwwdeUMlAbQ4oqy80qouTVtZRJIHjzb8CRhzrDN05sL6oW0sitS2skLikpg+rbBhOUZqWkVCibt1ZFa99XXgERNpslg9nA4qTEr1DDw0bigz9maNFGjjr/5j0f2OFSKxHlqamidE5WDg2UhAlgQUpqifjzOKbXSh+jvwK1Do6OjVUaoqymitOJWbkCcc9BpX9No0DNF3eYH3kmPJ/re+bM2iFCFVHvSL5EQ5Wqoqq7Z/5Nwdz2ntnmp4cKs3xIU7U5oLoGuiiV9iWNAlriWq8qyswrI5S11eRRaXaIqFhY6YK4pFfFsANPtC6c+TIxFzW1sZS2tM3AwMDA0HL8qsh3PB5Ppu/vAADAsrQxw8oexz0VbeUrf3j24geJ2NwIV1UZlGdlijcjlsTdeiL71TCotq2tDvwcc+t9jVMLC29cim3JDV9kB48e6vy4oOBaqenUf5dMWXnhbYvdYCP4eHjS3DAFv4PbhnqvOezf6vHK8RsTGtxfQ706NL6vh+fU05++b+MlZuLZvy2IDzr5rFKU06fgo9EVuv19O8nkP3K6erkr5187dilLtExWHHv07DuWs08frZbxyQVPV9irG3rtfVejY/67o9su5Cl7DO9b5+O1IDH2bh5m5+pSb60aVpSVQ1RdR6umOLAo5lToZ0q0/i6C/yQ8OldUhLyY6AS+UvtOFgQAALAce7txq+5euJopNp3i6zNsDU1HBGfRAAAEfAzbs3PV9is54t+p1Li4TzTHwFATA4D6uM/HwsZt/vXae7rKE06fe0lruXQ1l2EmiCjq6SnDrIT4r7WTM/6bhJdlqG4rAxzIUIm4iX07JUHizdismjLTGdcuP6o1UVS7R29b7Gto0K3afb9lD3ZO9w+ME+pEzqa9BVYUdyNe9IKKx5cjMsTiwMryChpR0tYWefUVz4LOPBMAmqp5nzQVAaq8vBqwtHREO7QFH06fvFsFKFElYa179jID76+GiosIqHe7+7Q2dFz1iA+AdDsk2nt56lXFnPjnk6ipVj4/dvIRtPD2Mm+ZOKQMDAwMDDLxK042fecpeCh4t7OrAirXduzea3fiok+v7Gvv7t6erD0FD79dHaeFcWynnU34kpGaHLl1cOeONhoYd7Tw+DOdL4xgJArDRHTyD6mJXxOfVg0hhNXP1tizUSXbcdvOXgsL2TvT1aZz5zY46dZMGKb6UKl768U7rAP/3X4PNYxjOmBt0PUbkaEHl3qbyROGYy5kSZ5Tb/IUPP3t/b1IocjXj0+yxHHzv46ECUtw/1MphBBWJW935ZLms2/VBDwsf7KyPYdtveBOvZO7PxwHFNJ5YZNMSELHddrmwyeP7pjf14iN6Qw8LToCX53y4MpFIee3DTbACJspx0IvXrx48fLNV8J4p9VJ291UMEWrwcv2HD95YN24jjxM3m7Z/ZrQBnRBUvSlmgzOznMkUbW+6/69ePHixYtXHqXWytr0KXgIBe/3dOeicmYDV+w/dWLXPHdDElVzD3xTNyVdcLIfG9WaHNVAyaURk3Qx0sLvn2efPifHnpjTw23KlB4clOe173lqYSWEsPLaWBVU0djMxnX2gcsxtyNPLe2pjRFmc2sjOVW93NpVGePajt546nLY5dPbprpo4hwrf1Gl0LlXJxqTqIK597wtB48f27dxhntrDsqxWRwnzIHOuTyhNYFyrYcs3X086MTeVaM78DBM2+fEZ8kz4s2cgq98tsFJCVWwHLL2xNWbsTevnlgz0EwOU+u9/73o3H7zlQhhyc0Zxjiq5jIz8HzY1X+2ju9k39lJF5MIw1R4Y7YFG1N3mREYGn0jLHjLJGcNXMl547OaQ+fUp309lVC26cD1QVfCQg8t7tPOtasNIbY3/pOlljhmMGj/gw9f3twPWeHZeew0bzWU02X9g8955TKoiPqwowsHVesVcOvtl/fxV/4e6jJg+og2OG7jH/U+p4SCENI5V/4yIkl99/n7Qq5dO39oha+ZPKbe95A4RG7zdggh9fXUAG2MbdRn3vajJw//Pd1VhyBNp1zPaxBRgoGBgYHhF/JHxAGFUJAattzLWkuexVE17uq3/0lKkDcbM54nir0Cqawba33bacsTOJtn2m36qRf3VtoQ8sMuVEIIYdWtabqNr+SyPI7UxOGp/nRxkaeVphxBKul3GrP3UfKebqTY5WwBBxRCWJp8dtGADoYqbJyQ1zB3G7sp4ms9J6hJB5T/YnW7xpfAiI4bXwtgxdP1DgrstgvultQ+U/F0bSc50nRqZIHkyPnjDiiEsOpL2Lrhjq1VOSRb2aC975KQN2Win+iCE/1YjUooEVidLog/PKN3W20FFimvYd7Nb9fdbLFnVf1ggWnjK0xsn+DaYjXngEJI5dzZNsbFSIVNsLn69t4L/0kuaXDjwLu/HYjGM6BzYwJ8rTXlcEJBx9Zn5fXUqpywWXaqLLaKU8BzPoSVF0coYq1mhT0+MtnVWIWFs3ltes4+86aiTh7Fz0/N9+lgqMIhWUo61h5T98ZlS3qP1Wk3t0/sZa3LZeE4W8XAru/0wDoJqr5GbBrrZqGlQGC4vIaZ65iAsE/1gkg144BCSBckHJ/n28lITZ7ESQUNU+chy87VVUIzlQghhLAs6eS0bqY8NsFSMXKdFpT4YKUNzvY+XTuREWTGbvfrbqGlQOIsroG9l//xp4USL6Ayb6wfZKerSBLyWu0GBNz6fGYQB7dY8qQmDui3+MDRHfUUCZyjYeE+99y78pK41V20OCylNnNvVcmioso3p6d2ac0lcbaqcddJh599q0rc3ddAnpTXGXO+JqZZdWr03+O7WWgpskg5nrHT0BXn65axOTuEEEJY+vrsIh97fS6L5PCMnEasD6/fUhkYGBgYfjUIbNnjPi0DzDrUu9X07MXxCU05ZgwMDAwMDAwMDP9H+TNuP65M/Gfl7LmHn4l2o317dO+lQMHS2ojxPhkYGBgYGBgY/tf4Mzw8UrH0SdDubdFZhSvHdVDOvb1n2ZkC4+lTeiv+14IxMDAwMDAwMDC0NH/KJ3iY/2DvoqWBVx5/LKQV9ax7jF6+eZmXUeO7DhkYGBgYGBgYGP4P86c4oAwMDAwMDAwMDP+f8GfsAWVgYGBgYGBgYPj/BsYBZWBgYGBgYGBg+K0wDigDAwMDAwMDA8Nv5X/KAeV/DVs9zKWNlhIbx3C2kpphv30fKOmPyURV6HAFFBFCOmx+21L5Mnw/Rae8OAjb80TBH799ufrWNF2MMzikwZWpv5rfpiI6LbA7i7BZ9UIgPe3/b1Rfn6CGkY5/v/vBzoL+uM2ZhaqOvVYlPe0fzn/WEBgYGP5c/gQHlB870wBHEARBMYKjomvZZZD/vti0775EnU49NmnY2gtftL38N+zcu3fn3+sXj2yv3FIFJJwXnr969eqVI36WTYWugvmnvJQ7BLz6c33TP19CmcC12nZx7WqthbfMJfP/i/yoiqqujlEWzbPEYNqTo7+7OTZNxYeLK4c6GavJszhc3XZ9Zh1JKPzjZxINqLj+l3br2Xf4zaVBeGYuXbvaG8j9qJ1y9O26uLqY8/6TXpr+uM1Zsfeh7Ebqhnq72YGsbyUIy3V3Cv0b5ct7uG+qu7Uul8OWVzdxGbH++tcWNNKWoRkd/tfQ6ft6sDDdabcklEa92dSJJMyXPBEAAKjEtXYkgvEG/pMjEh/mHu3DJp22Cpd1YN6xvuwGVkC0XfG0djJK58cf9ffu2FpNgcVS1LLqNXnPvZz6NgJzTnlzCYJlNPt2g5lW9deIzRN62uirypEES1HTxMF3/qkX3yAAEm5DI+BtFj5stmkCAAAQvFxjS9SbPPPv+RvhrM7bP9FSBWhGBsJ2zctaHdaAojhLUdOkk/fsAw9y6fq/1gPljQ+rAqDqwlA5cX+MYoScir519zHrLr0vl1GH/AcLTBuREFP/K6JapgQtVctN8GfEAQUA4CaDV/u7KZbmfEqIOr9/xqWgfwPCry3qIC97DvyXD+PLFbwPXzk0jNvy8qFadh6edoD+/OFvFDTe0VU+uv2oAjq0/Lt/EEhTFERxrHb4+9Mk/EEU3DdEuf/XQvzZ/KiKCJtxO/Y7V0H6y8W1W26y+i9b5KGNInKWTc66vhc681+/biMuYN2nrdjvoFH59mrgtim9ksruRc22+GP6ogY0bEmCxNtxBdCj+ccIh0WXYxb9+GtRnSGBN4b8+PM/BSy8d/tlE4M4qtV70V5uDg0qHu1fdPKt7aStE2xxgOl0Vv1trnJlQkDfXmvemw7337K0DTv7wcmt63x7pl96tK+P6p8zLW1Ohz+UXwM7/OXQhdd2HHk1dKlVw3uUEQWXGXv2e1FAkBy0JPCxwYgNMzsrAlS1vYEobcndZT37bE6S6zDUb2UHtbLksOOn5vS6//na3W3dlcVloNNDg2K0xk5tc+FCcOxG195y4hfAosjZPbwOF9uPnfv3Mkt1tPBN9OHtO8f3fCuIvzzBEGszdEOgVSkEAICqJwcXHH9dY4cAAJRra9T4xc/fRfMCiGwdNxm82r87T7JSUF4HPfH7Me2+S1b7GqIAUhX5nx5dOrlvWs+47Dv3V9nrei7bq5FHAwAA9Tp46Z6HekIdAgAQtpk1AQAfAAAIW7/t0x3YANDVJZnJ0f+cWjXoRnLw0zNDtUTvbFqHQgkMfVYs7K0p0TgRjoUVLlOCFqrlpnX831P/Kna6+EmAqzJKWi97Ir6imS56dmJufzsDZTbJVtZr13fWkQTxBdVV4RPUGuv4MIOZsaLL5AWZsdvGu1loKZI4S0nH2mPWyZffxBdc0wUn+rHwNgsf8ev8BzP2vyd6XgT1aUdnkui06U3dy6WrY2bo1zd4VG1CuKxXTAteBbQnWO77nkas8W2nrUCSCjrtfFdFpEm+RZARs+2v7pZaiiySo2LY3nte0ItvEnd0Fwb7yhO2axOr8+7tGO3USpmFIgDVnBhZ1RIS8hOWW3EcVwZv8jRW4qh1mB/55dF2bzMVOa6J7/5kURZ04ZND0z1sdLksnFTQNO/mt+d+Xq2AlRdHKGKGs67HH5vcxUiFTbB5Jq6TjjyvvcdcagJYdnYgWyw8q+/x/DoXwQteBbQnOAOCv9zdMa6zMU+OJadu7j7vwieJKqQLHu4Z52KkwmFz9TsO23Tr65VxqriEldSoKm5uawzg1iufN3ohfbNUvgvx722hIUeylVs7Tzjw4OJUXZQ96Fx5bYJP19aOdDFVlydJeXUTp6ErLr6vuWye+rqrK8d09vH9wy1VOFyL8ec+JB0b3U5dTkG/x4YHJaLnS5PPLPDuYKjKIQgOz8h5xIbodEkjaV5FsPrunFaE9uTrH8PXDu5goMxhKWi381kTldng2nn+o4VtcMJ+fbKg/i90Xty2kZ0MuSxSXsu637LL93d2I8W64pcW5OU2Rl5hmQBCCPlPlljgrE4BiWKjyTjlw8M0Rl/+Vv9FPwadfcidRbRfd/fujpEd9ZVIQk7DwsM/5F2lRBopOqyMnKiFG8yMrSx5fnRKN1MeG0MQwPYJrqkDwcs1tkT9vobtFVQkzqAqeoq2uEMiHDa/bajE/MeHZvWzM1DhkKSidtteU/bey6mtAypljxspHglUxlytrPNw9Z3ZrTCF4WeSz89zN1eXI1hcQ4eR2+Ik2lrz3Z30llJ5fgin/tCBmy1+3KA9FJ7sz0YUhodW1v+h2YbAf7+vtyquO+LfTLFM/Dc7u3FxgzGhWTSEkK4sbtyMcvO+VUEIIZ0T5MPFdEaF5opyqHi81Jpgddr4uoGufwgZOhMpSpamw8pr41Qx3viw2g648to4VZQ7+opImVLsEEJYnRK5cUzXNhoKLJa8uqnLyHXXv4izq/qW10RTLK6gIIRUWmB3EtWZelNiBBC83tiREAkpeLnGltSwb29I6k+KEL6TzjniwSIct7yvq+SqsPE8lOV+MKtuZyN4tbETC1HouiVZVCIq6/L41jhps/JZrSVR77e5yBn730076aWkMfpSsUQG5RdHclFFr5O5tfl+i5rSiuS67ajXpEqCfZqww+bgv1jdDq/Xz1fHzW2NkS7bPlKyCFDfdamP4OUaWwK3WPJE4g0V9+a1wTGT+Q/qjDpVkRM1G9Fh5fkhHITtfVqid6Qzj/ZVQDiex2sbfDM6rL4/3wQjOjbdLqQmEEv4M7XcJL/EAc3Nzf2e5I3UYnX8Misc059+S9g6qhK3uipjPMdpgZdj792+enBOFw2c23VrkvBXOjfxZkR4+JUVbhxU1XPj1fAaImJfFQiVJXi1xVkeU3OZtf9CRHRY8HpfYxLTn3BN5ML+vANKF7yKvX5ishWOm4w9GFbz+puJuTSUDcG7vx0ITM/ctsu0U48+ZWW8jd7URxuT77xVZBZ0YfQsczau02Ph0bA7cbdCd4y1UcRU3ffVdgX8pyva4px+67d5amo6Tgg4dObfkNNHj0Z/FmXwUxIKXqxuR/J02o8+8fTBZjcFlklb15FHEp7u91LDdabcqIIQQir1eH8epmg7fkdIeHR4yPYx1vIYz+tEmqhSK6+OVUHlTSwdvTdFJKdlfY0PntJODjf4K0xUC1ITQCrzWVR4eHj4tV1D9LCGDui7vx0I3LS9s/OEg7ffpqYkhS3vqoLKu+3+KJrYZJweqI6SRr4BZ6NiIoJW9LXs3MWWxIz841rKAS2/v8iKxDTc5h+7Hhtz9ciCXvZWZioSDiiVfm64Hs4y8l4THBkXF30mYIAJG9cbHpJBQQjp9H3d2YpaFgN2PHh6eIAGYWjl6PP3vZfnxrXClQadLRJW4tXx+hjLdNCG4LDoyND9M5xUMXnnLa9qjbF5FcHqB/NNcDmrDs5uc4Iffkj78vTcDDs5lDf4TE49O2jKAaVST3jxUI758K3nb8ZGhWwZ1dHOspW4E6++Pcuw8YUH3Gp5Ah9CQeJaO4LsuuuLRIddcmG4MqY5KUrWyVrz0PnHPVmoepu2TqP23X6Xkfkxbv8wY5K0Wvygxs+XQYcpu11J0nnZztGGqjZDVwQGh4T8c/zg1Vc1VkKXfLgXEbrQiUQ1vLeIOpuopxm1xkLnJcdEhIeHXz8+yRJvxAEtvb/MXh7XcJ685VToldCTm8baKaOcdkvulYoSVHx9FBkeHh5+dV1vLtrQAX0w3wTDW1k49FoS+jwlKy3x0uLOKhjP+6SorUnp7qS3FCrredS13UP1McJ+1pnrNZ3F3bfFDTqLphxQqQ0h5dQALVxn6NkMCkIIq1/vcFMi20yPEvbXdNZB9ybuIGEPOFMKISw9P4yLaU+KlHivIGm9PUF22fmlCV/g+5CqIqlKlqZD6Q6oNDvMvepnTLJNfNYER8Xdu3F2w2AzOdLI76qwS68MHa7Q+PIT2XXXV0pGB5RQGrZtc1c5JY9DqRT8TgdU8HpjRwJVHXFBcmpJZT28dvNdUW0dCRLX2rGM/eOq6JwT/ZVUBp2V6LFKzg6UQ1VGhJZIZEBXllc2rOFf5IBKFeBHHFBB4lo7AjOZd/8HHVD47fwwZYTd95h47G5Oh7/aAZWtlpvmlzig/v7+3+ODNlaLVTen6aKk05b3FIR0QcgQVVxn9EWxXum8f4dr4BqjL0v6+pWhwxUw7SnRDQcyKvPSwv49h+1JFDlj+ad9FFDVsaKO/ecd0NqfGls0ko7g/RZHAuAWix+JpKc+7ehM4uY1M2bBuy1OLMxgUoS4wIJ3W5xZmP7UG6LFNTr7cG8WIqeg3X17ckXjb/lxCYUNyXJpPF+4NiBsP3T6/h4sVo996TSEsCRmvW+v/uvjRH1AecREbZTjeVzUTCqvjVNFEK7XyWxRLZaG++lgit5BNTM5qQnE8B8vNsMbOqDvtzgSCNlhfZKo0ipvTdPD2H2OCkWgPu/swsL0p0SJxvnS23Pa4KBhLQteHf6rv6fXjOCmupWmKL06TgNV6HMkQzyxCR2piQLxuFv9aJEZjlsvixf3k5UPF1rguPWKZ3wo1CaqPSmyQliXKG/MlTIIy84PVSBs17wUQAirE3aP6N1r/jXRYhs/fqlFYx5OUyqC1Q8WmGKIYu+DKaKiFZ8brISqjL5Sz2SacEAF7/52JDBT/zhRcn5yQAcCEXXidOHbuBvRjXHjwYdvNIQVocMVhc5m2ZfHN6Nv3HldQAuS1tkTpOvury3iOdAFJ/qxAKrzV5ho1KDzgnyUMC2/8JpKkK7DiosjlFC2vGqHpfe/NTFB+3bam40Zzrpdv3+oA/VxmwvZoHqoL3u6yWGtJkeK2zKVdsiDK6c37mJxvQyqwieoYY04oAtMMYTlsu2DSGPV8UstcdJlu9A7ktbdSW0pQr08WWKBNxwR69KEAyqtIUAI6azQMQaE1qDgNKr69XZXJY7NojjxOF+V/vRmo2YUfetFlgBCQfJ6e+E8hs5NirkRfTMhtRKWXximiGlNbqT//wGkqkiqkiFsXofSHdDm7ZD/YnU7guWwQSwgrH65tj1J1rgSVE5iTONN8WZ8SgWU1QFlDzqXHjpSk2y7LL76Ox3Q8tDhigjpsr3ZXrT68RILlumCB9UQ0jkn+isq9TtemwuVfspXDSVb9Vsd8iiltLlsfpEDKlWA6pgZ+hjRadX9r6kSpKUX1PSPwnHTdFZEamZmZmZm2qfEmBNzO/NQdrsVj+vK2pwDyvIIfJ+ZmZmZmZHy7vGVLYNNWZjmoH8yxK2/OR3+agdUplpuhl+y7yo/P3/jxo1LlixRU1P7wSwwTR1NjMrLyaOACf046naxnKtnV7mqykrhz/KufZxZIXGxL/lenRt8DmsAquW9+Yp37d+Ior4BDynLyy+HgPXn7BhC1V172Io+vaF6Dg76cO+zFwWwowYouHPzGV9t9EA3JVFizMjTs+3SVXdvvxX0sMUBAIiCogICqzSHrZlmyW78BT8JbmJhigNEkauEYFwjAwwgSlwlBGaVV0AAEAW3ZaFuEqlJPUNtTJCfW0gDNfGqGGHXq5uaSONyHZ1t8eMvE14LRokrUWoCKWCmHn3MRGlxXUMdlCrIF4pQ/SI+kc/p1d1ZtK9Y3nmEr/HerQ2Ob2MWfkeu+MmoFAkEH+KfFuDWPdw0awqAqHT3cGT9E1nzO/Xp1q1PwHSBbzvx8g7Lvp+73rb9d+MyaVs9AADAjcxNSIAoKimiqJ6RIQkAragkD8rLyiEAgLCfGRwxU0JSPUM9jP6SV0ADIPuWJ8Kur4eu6BMxR99AHSkvyC+HgC29KVQ8e5JEqQzu0UFkYXibXj2NVz2v+QtRbuPSo03Tj8OyouJqhKvMRamUM9M9liSoT43+vLeNCheBBYXFLXdSA+E49eqiIBaqk5M5Gvb82RfKwwKTRYeogpI8qBb0XbbISbHFuwdYGBPxsFJjzKDatozqTgwvmvh92WCm3buLd6ERbR07KAouJyRWASOOjN1dMy3lZ5HWEAAAANH02Xl4ooOX/9QVCYV7EyyX3VntIqoxQOrYdddp5gX84sJiGtVV5qLVdzZ5+5yudNv78cZEZRVF+K2wqOXOQTWnot8xpjRnh3TarRuvgcWS3q2oysqaQ6Wt3d1N1+6IjctfZK6Bqrd169G2JaRQ8Zzzl6nLkZ3X5p3y+Y7HYGlBYTVEeWrN7QuuenD67MfWQwe3JwAAan0Hus2cFnwxfcwUPRQAAFCdUcciqpYu2LB1uOMaTMW4Q9cevb2Gjh7arbVc01m2JLIJwH+8xtlwjcQ/EO7oy9mn+ot6ecH73R76u0W/ETyrfqsu7l7aUfZ7xqsipptqT695HpXXdxl3MOTvYaJdPs3rsCZNYfrXL+w6WzzV9DQVMNkTNIFMtdwcv2rTuNAHzcvL+9EMaIoGCIpiCIClGelF1LeQYTxOLRpjLpXR2elZMp7nFmTE7Jjct4OJloqiHIfDVuwVmEID+IfdQopp6WrV1jiqzFNB6YK8AhoAOis9k8J0DXUl9w1r6+lgdHZGlqjDRRAEIPKdutjLbtnfB8qRYwGAoBiKICSLRABAUVS4hA4AADD/8aE5Pk5muqpK8hy0mxU/AAAgAElEQVQOW95+9XNBPR0jhJaOutjkEAVVFRbMzyugZU8gVUYlZW6tTaMoCgCkaQAAgCV5eRWIiqaGeHcdwFq3aYmt6iLovOw8GtXQqi0A4GhoKNXuts9Iy6QxPUM9iXdiOvraGJ2VLqpFhCPHQQBAMRTU6BigmFDJwkIk/bN0aFdLfTUleQ6HzTGccav6u+0Y5Sor1YqIoCgANC2TiunCnNxqVE1LQ8JM1SXLKyN15YUQAtCijh7K09GqnYShKqoqKF2QW2NGMugQRRBA2HZxVGxJoWqgM1LSBZiOvs7PWV69zkJFVRmpzM8rE5ZClu6u6Zby00hrCEIQFffNx2bwIjbueG675vhCu++eNde3emEBW9CQmlfRbxhTmrFDKiMtk+I/X9NeoXZQVHTcmCygsjOyWzYWAWk/ZaZreejOk5++K3oKgiAAALo5hZTFBJ1PM3Dvrl+cl5eXlw869XQAccH/fhHLjyi399t362NO2rPIY8sHmVXc2TWph6XNsBPvfle8A1kEwC39jly5Ksk5fweJBRNMf+jua+Hh13YPNcBIm8VR8aErPfS+Z+WPdFoYGh5+/ewCJ3lMbcDhx7cP/GUrbk1SdQgA4L/8u6dxa0nMRp6WDM0gNUHTCpJey83yC0+e5ufnHzlyZPHixT/ysCA9JYNCLXQ1UQAQBAUoz2fHpUWd6oqLqpqSTTxfh8pHKz36bv5qMT7g8O7OxqpsVJCw0WPsuR+R65cirEwRNEUDgIv+hYBGelwAQJ1HAKKgrPTLqhRprm+n3uz07Tk/XmfQ6t2be5qpy+Hw06Gh3nsb5lGniDRV7z/SE/wwNU6WpBJbeAoCAaz3AkBREp02IkpWRwRQr9BNl5ZOPz22+7hrbPfFm871t9FRJEDB+UndVmf9tODfSR2t1SmhoKywuIJqRKkILqesLIfJq6qwYVFBEY05LH5cLewZBC/zC2lElafSgq5DXZuhaFr8L5l1iHCVub/u68jPW17DhiJqoP99dyetIdQgyE5OzqYRpOLz0+R8aC4+0wtg1beCkurGNISwlHiKpHByXlRQRLO8gorpIAAAAGUPCkoQFZ7K7zmI/9uU3JQdoggCCDv/fwMHa9btQDm6RigAoLokv6SqMStDSAUVJbYwtg+AsI6zSlNUjadd51X6I+YMWecTGHh/oJXMTQJR1FCXQ6jcrBwKKDc+2SqODLqUxc/b7a69W+I54p9zb2ctsZB4BOFotes1sl2vkXMDCu4u9/DYPHt+nz6Xx2r+bPMUqaCeodINVNC8AKiqVXfPfq2btDtEwcipt0cH3L3t6qjoibsWHB4bNcP4e6afqIZNTw8PReDKTbjmtmPF2luegT1En09k0iFuMnrn5gG6qGSWtpLH9qUmaLJs0mu5eX6hA8rj8fz8fuBLJgAAVD2Jup2PtnJw0EEBomBgoAZuVsqbOTiq/4jN8Z+GhLwSWK84cWCGjbC8FR+QSgmrQxAUQSBN0+L/wZLiby3qm8gClZ2RTQFRvAsqOzObwmw01FAAgLaBLk49+ZLKF/8MqLSv6RSma6Bbr9r/my0F1IfLZx+W603cd3Jhd+FSBr8Qq4SgbhgtyM/KzKNBjaHTeZlZfERNQyKEgdQEPw6iqKpCwOL8Aj4ANdNT6suHLy0YEhXlqamidE5WDg1qVhhhQUpqibiHR3UMdFEq9XMqBbRE7Y5KT0mnMFMDWdbDYH7kmfB8ru+ZM2uHKAuffkfyf6eZospqqjidmJUrEPccVPrXNArUxD3j319q133310Z0ilstf/R8nT1h3rYN+u+r5FS6t3FNpcKSpJefoGaXtpot5znQ+ZnZVbXVnJ2RTaE8TTX0j9ChjoEuTsV/TRPUtmXA/5adU4IoaWooytohU9kZWRTQrElelZ1ZAOXU1RUQGbq7X460hiCk+tWevxbF6viH7smbPXb6VPeOF8YY1KTOOTnYcHJUY+H32QPO5F0YJm9oZaFIRSa+rgKtODW/CN6+SKokLGzMZdys83P8vJIRFEEALbl0VP2tuELmHDC9VvoY/RWodXB0bKzEVWGTWw08U9pIfmTXXe9jZhmg8gryCCwtLBYAIFrGofNzC2hEk9vgg7+i+6xJVqd37by2TPbAwoRNx3ZkUMKDx0WwTa0vUxITMPuq+qRlEx1V868GhRWb+h3bPVRf3PTLb68bvvnMmcQFa22xki+P7j4qbuXV21JUxwBVdfEbZrdt4ctn7wRjNX+2phF5BXkEptTZ/CMoyCuiUStlRQTAFhYA1Ru1Yd7+TivWLT43MGSE9vcP1BynheuHnh5ydN6W8Q/XdWADAGBe8zqs6R4QFcse3j7mTY8xUhM0ibRalubF/qrpIo/H++E9oLDk8eZFRz6R7SeMbY8DAMgOHj3U+XFBwR/E2/Xo1H+XTFl54a1MK/GwvLwcYpo6mjX6pTMvnggvpIVLjAAAADjKKhyYn5klCtkGc2/faiJ+G9K0h4dhGICVFT/c19PZtyKfinpdftKtO9moaUc7LgIAotq1VwcyP+pCTLEoseDtlavJsFWPHm2+w2p+VsKmgRVl5RBV19GqaZOwKOZU6Geq/rddfkJ4tCisMSy4ffO5QMGuo2QASKkJfhyWpY0ZVvY4Tqzi8odnL35o5AIf6tWh8X09PKee/vR9n7JwE/t2SoLEm7Gi7+l0xrXLj2pNFDPq0cMUfLh68Zl4aC1/eDkiA2vXy02W2TysLK+gESVtbZFXX/Es6MwzgYQd/3LkbNpbYEVxN+IrRSI8vhyRIXY4cZvpwZGNnnyIODLOFAMAM/Hs3xbEB518JsqA+hR8NLpCt79vJ8neXBC/1JJAUBWfU1k/Yquw/F547LeaP+jU2Jh3ULN9e0Os5XSI1rSk79c8ouLW24GVF3n+lnjcg5mnR7QxaDvjeonshaXeRkV9Fim+7P7NhxVEu47tSCBLdycbGIYBWPEjnYW0hgAAAJXPtkxY+cR4wdHV3sO27h8vHzbX78D7msaIqPTbdL3xQ0jXV3VjAwA4Xb3clfOvHbskMg9YHHv07DuWs08fLYmWVBk5URtDcD2/8JLvLkTzyKjkZnSIcFWVQXlWptgKSuJuPZH9yzKq3aO3LfY1NKjWjEDZg53T/QPjciEAgOi89GrjKgzf7quBAgDkLdu2xsofxz4SxzSvehFxMw2qtbM1aDCm4NYTZ/eiru8/n0nK6jihej6jeiiVRezY+aSs5l+w8PaaueuDLr0oYyF0RmhQdJnpwCmj3XvW0n/6GFfy9bl/4vkA5lxaMHDEcP+TnyT6aJif8OSDANXW024BzwXVtbJUhVlxsa/FY/2329fjSjEjOxsu8gsEIKxnbvyrVf7Fpasiin6kX0PUfNYscyMTd/rvfysAAEjV4a9HSi1Lff6XrID+iPdJZ8adCsRV+d/SXkadC7mTpuS+/dBsS2FDUOq7fHWv6zOWeg4tWennrFH58fbJ7buuVw48u0amKQhh09mReyj6yLYw5+lW1Nvw3QFXNPu1J06+ibv51rOPiZYSTnbs5qJwOmz7hjCTyfaK+Y+PLz+SqiOHVDbMC1HgKqJUcsTxM+adlTGAKpt3dTERxrtANSws1Om44wuXaI+xVeQX56R8Vuy7frKDzFsyMQ3B1SkjlRZN6qJd8fzEil2v5LruHiOcX6Otx6+ZerjvHr+Bquv9PY2x9LijawOeqQ8Mmuso0yYEIT8tYdPgpi7OmvSJ4B0hnkudyJTbh9edAO5unEPPH8QkpWmZ6ymzAAAA4fDe7hgyq3L+QEt2WtS2RZdLWk2Z0lciWm0zCWDBq9tPUiohAIB696kM0nmJNyMjFAEAqLp1t/a6Uk0BazN4tNNG/4NTJxtv+suWlRK1Y3uSYTvyQ1H9hHThm9tRkamWDiX0983QFHv9NaJ1yL4lQ+ZUz/UwqH4duvOfEisd7JlYSfaz1g0/PWz7sKGcddNcdfmfogNXBaYYT9w7yQxruMGiAai2o7MJcvfi7qPDdPqo5DwODtid6tyH9zIqPjbhi3m7Vjz2z6oIAOrLjWNhb6og/fVpEU1XPPwncK8Wisi19Rrnpo8CgJkP/8t184z9E0bxVo61k8+6ezgwQcuS+FQju7RDSABgbaetH3fKd5OXR/7sUQ5qpYkX9uy9reh9cpEbRyIVnXYv7qMAaz16zmCtH1nRR1U495YOXZo3s3dr8P7C+rVxwGaFXxeWLDrkSM0cAAAAy8zSBL10YdUci4zOanRJXtoX4Dx/Tk81BMCSDw8efPhGAwBg1ttCGtLv7kZGfEIBQLlmLk6t5dFW49bOOuqxdZwnuWRGnzbs/Oehu7ZEAMd1S7xVEAAAnf385jPh5nZBfDof8jOeRkXgBAAIoWPXzUZDaJGYZt7pkX7EolH2ygX39y05nq7ms2WwPgpk6e5kKiFmaGmmILi6Z/Ya9qA27IqCrK/ZusNWj2qLAwBg0dPzZ+5nU6Di8WcK8N9d3783HQeYbtdRPjaKiPSGAMoerpsQkGS59O7SjnIAyHlsPjAxpt/iCdu73FhozZJ+CAkgyt7Ll3WJXDC559DkKX3bEGkxR3cGZVkvDhpnKNFgBcl37uVBwmbS7F4tvZtXNiU3p0PC2q2L+s5zgWtC7Bd21ShLPLd6wwtVHloivR8QgplN3jD1ZL+9oz2J1fO8zVg5zy4HbjmWZLJuohICAJB+CAm3HTvZZa//gZHu5X6+dhog+9nFo0HJpN3qyW6NbMdFtIfMGbm69/4EmhBfZFL5+trxm18oQL16XQmplNhjgdWKAOV1HDzMQR0BANUbs3XDebdZG3o7vpowoose/fHGyRMRqa2nXlzTXYH+fOT0nSrj2d42dcwR0ezr25mcGhJ8b62j6/j1M4733TbLpcv9CYM7t+HhpenPwk4cjywwGL1/9Hd9w24KlqvfX21Pbdjk7Zkzoa+FclXag5Aj59KUuu8Z3w4HABjJJoDQdam71Ieqdhg03FGjwRsVuy9b631uzMkFmya4bXKUsbORzNfIb+PMg503BSwKHhI6uupfaTp0+3k1/Uwty5D9jx2eb54fiQMqVB2Cy6ka2HpM3hb1pX5kj+SziwZ0MFRh44S8hrnb2E0RX+vF22g6DBMUpFxZ2NuMx8ZJJYNOI7bezeV/DhpppkRyNDwPCqO/VH8Ond/bQkMOx+U0rfouvvT2+lRdokGIcgghnR25tIehPCo0N6J9gGQAwYzIVV7WWvI4zlJUM7DqPHDrAxnjQgjeb3EkiE4Bt8JW+9rqKBCEgo7doPU36gQIF2TEbJ3gZqYhT5JyPGOnYasufagTO6f83CB2vbAaDfhRCQUv19gS8sMuVNZEC2J5HMmhhWHPRVE56NyYAF9rTTmcUNCx9Vl5PbUqJ2yWnSqLreIU8JxfE2REefQ/j49OdjVWZeFsVRO3aSeTysTvkJKg6tY03ca9wRphBO+3OBKk01ZxcBqRVmtjZglSw5Z7WWvJsziqxl399j9JCfJmY8b1IrL9VCD6sqST07qZ8tgES8XIdVpQ4oOVNnidMG6VH6+uHu5kxOMQpLyGudv4LTfTa94iVGzPA5m0MPpGTWiMqugp2oQwyAakv8UHju6op0jgHA0L97nn3pWXxK3uosVhKbWZe6tKuoqEEXzY/U8W1hb2wQJTjCWOLlN5ZXTDHWeolkSUTirzxvpBdrqKJCGv1W5AwK3PZwZx6kW6k0LVl7B1wx1bq3JItrJBe98lIW/K6iagC4J9FRC205aG4aWkIgqgdjV2xygHAyWSkNOw7LswtDaCuBQdQghh1c2pOnWvD2jsPfe3Deugr0TipIKqrrlj/5WRwmhh/Ber2zXu4knEOqFy7u+b5mGjx2UTbGWD9t7zjj8tEgeI/Hdw4+dxEKVRlyuhuMr2PwyZ52GhzsFJrqHjmN2PCsThUaR1dzK0FAghrP7479xe5mocHOdwNVq36z7ucFLNz4I3mzo1nM3UBJgU0kxDoItuzbZgKbpsTqztquiiW7PMSLn2Kx7Vs4XmaiD+8IzebbUVWKS8hnk3v113s+uaC/VlZxcSUe5/IrO5SFKNI11F0scUCJvTIYRU1o21vu205QmczTPtNv3Ui3srbWo6WSFS7VCQGbvdr7uFlgKJs7gG9l7+x58Wfk9Zqdz7eye7W+ty2TjBVtazcZ+0645YiaIwTOK3C15v6sRCgDgME517tE/DtYuaiL8iyt5fWjuySxuN/9fenQdCtX8BAP/eO3c2jLGvSQspIWn1SouSQqK99LRJu9an7XmlXYtooUWLspTW95KkVVJalGiVlFeyZCfbzL3f3x/WUEYvXq/f+fynuXPn3DujOc793nNkuGwpZT3zGZXvkvjphm5slm6dbuwYY8yk7hsixdJwuliEMWayYw+7jumjpybgsFgcGZX2PYfP23Ujtd6Tvq0NE8YYi95FbHbs31FNwKXYUoptutsuPBSbV3MOGwmgofEuFWeh4n/EhvqAip5t+UWKlDL1eFr7MJrQiD7n/NRWLFarKedur2/8HP7jNkz/5F2WwI8wCQk0/AXwc6nX5a7JG3x3TNo+Cy5ltPobEk3QjEojnNUppXEhdfu/SuKLHXx/HnX+ZgBfkBs0UkC1nXdN4pQWANCyftz5ywB8Z6UJQRv97mtN8ZjRlYMQQgV3o+PFMgMN28FvwY9E/PRmdE77qQttJbkNE4CGlT2IjBF3XzivXws1jQQ/EvHDjYPH7P/KPabcYbvjfG2afhEcfFfw1Qv+b3AERfeP7dx+OT33jynd5T5G7loVnNN+7izL5mj3CL4V8yH61oc+8+f0bK5+tuD/gfjZzdu0zaqpTblJE/w0KJOVN16v/LejAI2BBBT83yDbzAi4ULZs5Z5t00/lMoJWhoOWn/JY1V+SpdKgxZCt51/Pmd/4dgB8BdV1bXyLd8gFADQFgX+wcUAAAAAAAODn1jJjIwAAAAAAAKgECSgAAAAAAGhRkIACAAAAAIAW9VMkoKIY1w4U3/ZovZk24CtKQsbwWZpzrkk+/g1Ijn5z0FaV294p9OMPt8a6+N6aHjIy3d3ufmp8WwAAAKBZ/BQJKED0S49eHKIubv+df7fUnHDR7SU6VL0I+KOOV6Q5dMLarhyCpTgqKLN6BPbHg8N4HNNtSRXN2kR3ftOtvwOCpTw9vDpH/vTi5O9jerdXkubx5Vp1GTZ/791sCY+v7PQ4KbL+3gmCIIjqGOiMW7vnWndrqyTDYXOkldqYWM3Zc/vjN5xBOmmv89JwofN+T2vlz5tZit5f9pjcv6OqgMcTqHUa6LTjZsaXe9U1ABfEH11q201bXoorpdCmu/2KEy8+yyNFH67vmGFh2EqOx5VSaNN95MpTicV1diHVc+Vhty4vt0xbHVXU9EMDAAAAvgNow/RzINUsl+0WZjKo5K7vMv+Xxs7bphlTiKXRV6Gl/sRgtR+9zkc3n8FZV7a5n83vt8h9jA4LUe161G7nyOSG7vB7Nm5l5y8152Np27m5WqrWCprgd+pc8SkVJ+4d3W9uRLn+SOc/5qt+Sjjrt2/O4NvvLkVu+KXxTkqUyYydvgPFGCGEc657rj6VWxkhQoilaqpCIlR6333okA3JOmMWrFvaVYNTmHzrmJePi+XjT3duuBpIMEe9Gk4/vmzNDf64kDXmsp+lnzj/6lKL4T453acv2TmgNU65un/bb8MeZl+9tb63ZN2y6Vd7x5rPv6Vsu2DDYiNhXtwJL28H81fiuyEOWiRCCOeEuwwYsf9j54mLt67U42fdD9qxY4L5G/pe4DiN2p8DjsFCr/kBfT0X7XC842bUlEMDAAAAvo9/exRTpfKUi+sn9tVVluZQHIGavrmTV1RG9UDd0tApCizFqRdqRgd/PraxcsL14ecR68d00xLyeMI2vR29YyqHI4tif+/M7/1H4Gbr9rJ8pe5LL7296zlCT15KqGPv+7RmxHXGrZ0zLQw0ZHkcvkKbHqNWhDz/fITbVyPEGNMZUV5O5vpqAg7FllbW7TNx/cWUz4a9vgl1H/+LjrI0h82Tb93NfuWZpM+GTtIfrmwY201LlseXb2c23efu60PWXHbXtQk1o4MbixBjjHGu//AvTMVlCuL8ZvbTUeCx+Up6g1yCHvmP5tefHS9+vqkHGzU2U/4r6KRtphyWtkvk57MQxfHuxhwVk27aHC3n8MKKgDL9hnKrJws3NpSWyQ4Zp0hSei7Xqkb1lj3baiZN8H7Zlti0Aab0Gy+zBiIsj1rYlsX5Zfvrmne1NNbNiCttuCqmSXMdyx+6GbI53dY/qRsWneTZl0fpLYwsrDqm3LAZ2pTAyu8DgzGmP4RMaEUpWPom1bzn7wNGqVJKVvtfizHG+NNFJ3WWcGjNrGlRoqeZFNV+cXQZxhjTb3f257I0J/+ZXTWkUZzsYyFk6y27W39ccMYxOzmWisOZJg2PBgAAAL6PZqmPZWVlNe0J4rhNdvabn7SbtefMlRuXQ7Y7yEcutx63+1VTLk7SyXunLYnpMNs7MHjPvI6pwYtsnY+nY4QQQVEU/crP8+mYk5fWGLzYNdfGNXZ40NXt/fPOr9sVVXF1t+jWqiFDloRiq3XHL18P81to+MZn4gAH/5rr141FyLzZ52C97Lpw4raQyzeunt0zW+eph/3wtQ+qLh6X3nGzHrnulmDcluDQCyHbHRTueoy3XX2ntDr6xF0T7N3Cyge6B4We2ekoOD7F8VAygyh2VXmq0QgbgXPDFg6feSil44JDFy6e2Gwv8nH2iKNbdtYhLu0wcU7v7ONewe+bflm76Nrp8BxW9+nz+gkro+Z0cpo7TLbswZnzKd9jnQEuLS3FhIxAuuakcE3cYvLy49f3akqRsDzGP+AZ2dvRoVOdMi/OuBJ2X9xh9K/VBVtCbvCkEZrFNy/cKEAIkeqjd+2fJn9txay9r8QIIcSkBrks+ZM1cteB6e1YCCHR/bCITP4gx7Gtq35tKZ3xk/pQKeFhT8QIIfpNYrKY3W1Qf4WqQ2C1GT3OlEyOuPSy7q8SoWI31VYh66+joTk/3CJVAAAA/weaI6tdvHjxx48fJd+eTtpmyuHZHsuv/pfC2CBP3/BXlUU4iSqgiDJcdb+q7lcQNl2Txe3n/ZauqL2xKf2VD0RY/GxDNzZLZ8ntcsyk+g7icgf5pDIY0yl7zKUovUVRRdURpfhayFA6S6LLJIsQ5/rb8Dh9PGuqZ+XPz3rtPptQUFFfEicenWU12Dng78rH6Tc7+nJYOktvV1amRLGr9CnK0O1h5c9M1mkHdRKxe25+Ia6Ip7EIq3yhAspkHraWZqn+ei6v6vnv91vKEPUrnfS7k4tGWA939Hkswt/kKxVQNm/0idQzDqocg1UPyptYARU9dDOgSM3PwxU/39SDTchPDq1f7/1ahA1XQJm8sBmtWSy1AUuP3Hyd941Hj7Eo7g9Dit11Xb36Jy6PdNFm8e2DCnB56qOrly9fi8+gmbR9FlzK4PeHla/H5N9Y3JknZ+79QkS/OzZSld12+vmPlTVKJn3fEC6lvypWxOQlRl+5fDXmdSFTHunSmiU1MrgAYyxOWNeVTRn8HltzYHTSNlMOITvpzwbOUG6gvQypOPl88bceKgAAAPCtmqUCmp2dvWnTJsnroIScmipPFH1g09mErIqSoYzJhEWzLHU4TXhRStfGzrhqvaGg39A+UqL4+4+rKpCUTiddChECoSzBat2uNQsRskJZAhcXl2CECqIu3y1TH2TVhVVaqVxp8LCuZEpkZDItWYQ8VXU5Ou7YtqD7H0owQgixO9otmGtnIKioRbF0f/W9cHlfxUo9hBCprq3FwdkfcypKdzj3UexrRtVsQOfKUhuhaOVgpVTz5jQeYSNECffiStg9BveTRVURDLbs0kBhj2w12vNc6F/+s42aZ3mwvPXC6bqJfl6huQ0X3spyU1Pe1paSUUQjhJjc7FyGVFBWrP2JJRWVFEhckptT2uC+moYQDvO6FLjYJN3Pqb+OkmKbHtbTVu29+DK/idXV4qfxSbS0gVH7estcmfy8fCwlJ+TivIsrrCwsrNbeKCOEckIS5+XmVZ4NQrb/usOu7e/+MWO52+wlYQpzD263ViKqn5/HkEJ5ISl+4jvJ0sJyhv9rmhDKCQk6P7cQI8TqNHpSL94z7xku/jFvPn5MeXzlwLxJ3s/ZRHlBQVn9SAWGxjqsgmdPUpp0FxQAAADwHTTXLSpNykEJxdGb90zWjN86qouaUuvu1tNW+oS9yG/ilUGWVlutmu98jqq6AlGS9bGoci8kX4qLEEGySILgcDkEQiRJVpR/EZ35/kM5/c7HQpZfTVp3cVQ5k56azkgWIW/wH/tduqT6OfbSUtQwsnBYuuNMXJa4Vnilr/9aP3lwl7YqcjJ8Po8nHBfyCaOqMahMdmYWw1JWU6k5AHY7He3qnySIsBHirMwcJFBVqbm+TCqrKv8bPRA4JrPm9y8+4+XfYOYsit8yuH3b2vQcAjIwQgRBEAjhOoNjK34myO+0lECq47gtF55npD29FrhhcjfWo4MLrA31rTwfNqFfEZ2Rmi5mqWqqS5i/Y4wxIohaByDVY9WR3/VjPTdFqC06vGGgsJFjqzgjlX/ndHQJDFxknHZoqmk7FZW2PSf50TN+H6tIEGxOA+GQ6q3USSbjQ0ZLNUoAAAAAqjTjXfDZ2dl+fn7Lly+XYFuu3qSDj+z+uHspNCzi8pVLu12OeG4be+Bq4K9tv3S7dH0s6vODIRCq+V4nvvY1TpAkYrWbevCos95nL0ewVTpW7bOxCFmthnveSvnt0ZXQC+GXr1w+5BrsvWXI9kvnXIx4COG8iy6DRh0s7u2y8ej4Hq2FXLL86m+/uERXvxKD66XbGOOqvEKyCL8Oo7qvQNP/TuWL1Jq4cOw6uz17bo/qXO9doXR+9fIYqVkrMyZVjBUJhAhFJQWSycz8rCkSk/0xmyEFSoq87xkgR6nTgLGdBoydt2brYyg+uUAAABvtSURBVM+R5q4r5/naRC3tIOEnsay0DCEej1v/A0fKK8gTxTm5pYTy9Iul0yuOIDU7lyHkFeVrbY5zXj55V0YQKPVRXJq4V/uqN5iUU5Anmb+zcxl2H89ksSdCCKHy69k5mNJTqLzdnmptu+3msN/fvkjKwgrtOrZTKA4YMQ8pqas0UOwmeDwugctKy2ARKAAAgJbWjAmooqKik5OT5NuTMtqmo+aajpq7jsm5425jsfEP77njvczYCBEkQSCmdpJWXpBfUudrk8lMy2SQYmWaUJ6Rlo2lVVRkJKiNsVS1W/Fwoli+a++vd8P5coQVCJ66ic0ME5sZbrgoYddY88WrPS5OD7SXRmVRwSf/Zg3YHbzdqRWJEEI4O4ahaw6AlFeQI5lXWTkMQpUHIHqb/I5G2k2M8IsoBSU5VJiR8QkjTsUpod+nvP+Xrr0Khrg4dw7w9gpdRdV9ewh5/UEj7DrWT/ao9saGAhzy4P5r2qLq7h5c8OhBopjTw8TgO3yMS1IfRt1JVRpkY1KdDBKCLk6T+/5+9dqjZ2IkYQJK8Pg8hHIayuqoDgZ6HNGLhBdi1LMq4PJnj5/T0v0Nq7NMxLwLmDMvhHIMPKO4YfyyaTv7Xl7cuWKhByHfqbMmuvXkWT7urlh1WT4tPuEjqWukz698uig/s5Cr0sawexuEEEJFl6/dLef16Na5gTOES0vLMMFtKFcGAAAAmldzXYRVVFRcsWKFkpKSBNvi3Lt+yxf53qteyEcqdB9iqkqUl5VXfIsTQgU5VJyeVn3Nu/DWtft1B/iIn4Zfql7NVnQr4nYxp2svY4lWkQrMhppJ54f7n02rzhrKnx5cNN/j0t9VazQbibD0SbCby7ZrVSv5ECGjP6RfW1JUXvE4XVxcjrhqGlULGMVJAf5RZYhmKst5hJKBoTpKux1d2ZMd4ZzwoLBaxb5GI2wM28DEiFt+/0pk1TkUJ54//0xcf0PmfYiLzVArh92PG3jwe6EMZyywoMN8T6VxJE5+pAeOsVGh4w7tvFq1elT08tDeiE+CAeNtNf75xxh/ur5u7Lhxs/c8Lqn1r4UP7z0Tkeqa6hIX4kkVDVWKzkhNr3/6CKUhI/pyX588cr3qTcDp5w78mSlnaT9QunIb8esDzosuyDjt2z5uhPuBxW3u/TF1U2xVROxuttatyq4fCUqu2nlp3CH/u7jTCNuKlF380M1EWdt2d2Ll46LEg9tPZ8kNnWCl1MB5ZtLepzGkqoYaTKMAAADQ0pqlAtqU7BMhRMjw0q/u33guNc9t6i9t5chP72NDthxObTt5XK+K/JFtOMBM2evEHvcQE9d+Kp8STqzZ+FhBkSysuaqMMWKpZR6d6Ey4TuwqzInes9w/TXWs9xhNEqHGy3yE+sS1rgcGrpljNTV9xURj2bxnEQe2+UQL5o7YQEgWIUe64N6xVf5Jee6zB3VQYpdmPLng7R2nbLfMXBohhPjd+3bjnY3w2XFd30GrMP7sVo+YzsN1b4XER95MMjVtpyzD7ungoO+zacvURWprx+nSL85s8UnX78iOlDhCnPfwVPDtDBqV3HtDI1FimO/uVAqxNPtNsjMSEAgRavYz7FaPOz5/vFbOrL6KBbGBXuFcQwHxoe6VeVyUHBNxKVa53dImrgxk0qMDzzzKZ3BWdDqNC+PP+uyOZyGqvaXTMN16nzJCfexChzWWvrEMu5ekLyC0WbPJ5vKM/WPMPs50NFMrfnrO70g0p6/HZsdW3yGDIpRGr16x78bKNYNMH0+daN5ZlVeW8exq4MEzbxSt9s7sLvnviZS+kQ7rwtP4ZHq4fp20ldT61X3BvsEeEyxKFk4bqEW/uuDrfUbUb/tq+8q+SeXPdk1fdk15dvgmC3kCod6/+7le6rd56mrz6C1mAoQQz2zpWttTU12H2KbMG20kyL4X4LX/qfb0c/Mr7xijukyeabZrwWrb8QULR7QvfxzkuSuSM2jXhrEqDeX5hQlxSbRwtKG25MtcAAAAgO+kOW6tb1IPJowxxqL3V7ZMGdhZQ8hlsdgyqh37/7oxvHYbdzr9ylr7LurSbIqnqDtw7tHH0X8YsaXHn65swxS1sA1LMCE4IWTJ0E7KfIor17bP9L2x+ZUtkOLdjSu3rei9NNQvk8H40/FRvJoeQJjJub9//jAjTVkuxRZoGFrO2hWVLm5ChEzWHZ/ZQ41by/MpFltKqb3pmN9PvahpFF/6ImC2WVshh+IptO/nfOBRQVnCTqvW0hxpDcdTFb2dSl8eX2Chp8TnSqt0GrIw6MlTz74cdk+Pl9VBfDVC8YvNPesv8+P0867uWY6ZnJidk03bCLkUX6nT0GV/vgqfrUkpO4V/p0b05dGL69/4jXgjg4tq3gXe6BPVPX/Ezzf35BJI4kb0GGOMP7087TamV1sFPocnbGVss/hIXF7T+6h/oQ0Txkzhs5OrJw000BTyKBZbWlHb2NLJ48LrJrYpKot0acPiDdiZQjf0qDg9cse0/nrKUhyuQMNw2IKDD6s7wZc8XN9LhmfwW1RhzeYlD9f2lOLozr6UU7VV0fPjy+xMtIRcDl+xnenE9RdTPnuj6Myb2x37tJPnsXlCLZMRrkFPC79whgr/dFRmydoHZEEnegAAAC2OwPVvfwE/APrp+p5d1wm9kq/M0YRLpP8pogerjE23Sbk/illZtwb648CZAaP0pkTbnHx51F4OFoECAABoYZDb/BhwbsyBFfNXHK9eBJoZczuRUTPo/K+0SvqvYd7ss9dt8xUdxvuntdgfWmyTecttBHF7PH7gIUNlD7y3XCgxnv+bDWSfAAAA/gVQAf1BiOI39jF1e6U/fe2KMfqclAtbV+580Mb9TvQqo6aMgQQ/BnHiziE9l6Y6ht/3Npf98TI80dMtA3q75TpfubfdTKbxzQEAAIDvDRLQH4Y49fIW19UHwx/9XUjKaZsMneG+ZYm55Ldfgx+K+LWfnencFyNO39lvo/xjpaDF990HmG+hF1yNXN8b0k8AAAD/CkhAAQAAAABAi4IVhgAAAAAAoEVBAgoAAAAAAFoUJKAAAAAAAKBF/RQJqCjGtQPFtz2a928H8p9SEjKGz9Kcc63uTNP/B7gg6jcjKbn+256U/duh1MW8Dx7XiqM5JuhdE0dRAQAAAP8dP0UCChD90qMXh6iL23+nhLPi/zHRjfmtKYIgCJLF5str6puNXuxz430DyW1R2HQNDputPPF0XkNPbwDVwTVGVGvTe8s7cdls6SH73n/jseH8ayune7/ru/HgIgPu548UxB9dattNW16KK6XQprv9ihMvPn3LC+TddustIKXGnf48vxXF/KZb7yjZnVfF1hocT7Yav8fHgXXOZfbhFEhBAQAA/KSaZRY8aHGkmuWy3cJMBpXc9V3m/9LYeds0YwqxNPoqtOSfGJTOmDWLBwiKMpNjI075zjt37OSGi6HLukvXbIHzwo/9hUfNGXvzWMCFrJEOSpUdilgdxm3c07kII4RQ2f19vx1+XnkICCFSaNyuphtVaXTAibRBs6e+ORR46u2Mhe2afnxlsVsXHXhnvPqMs87nTa7oV3vHms+/pWy7YMNiI2Fe3AkvbwfzV+K7IQ5akr0KXZz9/kVMWJCP56FbGaL6j+O83DykOGztXmfDml88Ulbv8xmmhNLwjRuHn5/6+8qzIwJGKf1YPZwAAACA7+LfnQRarTzl4vqJfXWVpTkUR6Cmb+7kFZVRPUu7NHSKAktx6oWaodeloVMUSOGvf1XOgr/zmy6LN/zw84j1Y7ppCXk8YZvejt4xleOzRbG/d+b3/iNws3V7Wb5S96WX3t71HKEnLyXUsfd9Wr1LOuPWzpkWBhqyPA5foU2PUStCntdMcm80QowxnRHl5WSurybgUGxpZd0+E9dfrD0rHpe9CXUf/4uOsjSHzZNv3c1+5Zmk0tr7pz9c2TC2m5Ysjy/fzmy6z93Xh6y57K5rE8Q1L9BIhBhjjHP9h/MImQlnSus9whTE+c3sp6PAY/OV9Aa5BD3yH82vP/P9W2fBl1+fp8Xi9N2RXHlOmPz7G/rLkRzDVfdr7YjJPGorVHH8M/3CNDXB0AMfGhxDXhho94VDwBgXhU1Xlxl28N2dZXr8r8+N/wImM2iUAktl4umcui/+6aKTOks4dF/1EHdRoqeZFNV+cXQZxhgzuVddOnKke657WFK9r5zwme3ZMqYb40oxxqK7rh0oRHCUuozdGOY/XY3kjz31+TEUBY/kU/orH4gajbL8/gp9itNt/ZOmHyAAAADw42uW+lhWVlbTniCO22Rnv/lJu1l7zly5cTlku4N85HLrcbtf0U3YB528d9qSmA6zvQOD98zrmBq8yNb5eDpGCBEURdGv/Dyfjjl5aY3Bi11zbVxjhwdd3d4/7/y6XVEVF4mLbq0aMmRJKLZad/zy9TC/hYZvfCYOcPCvuX7dWITMm30O1suuCyduC7l84+rZPbN1nnrYD1/7oOoadOkdN+uR624Jxm0JDr0Qst1B4a7HeNvVd0qro0/cNcHeLax8oHtQ6JmdjoLjUxwPJTOIYlfNQWo0wkbg3LCFw2ceSum44NCFiyc224t8nD3i6OarrhGy3X/bPrcT8+zokejqC/FM6plj1ziWIweq9B81TPpm4OmmLhDAeeHH/izsO8pKs9vIEa3jg4ITxI0/6fM9pJ87cjFfzX7KMPk6By+6HxaRyR/kOLZ11S8FpTN+Uh8qJTzsiRghRMiZbzy8tEPCJmeP2BKEEMK5l1bMOZTTf9OR37pwEUIsHcd94TEv0z7EnVgxqKEJAkxeTh5NyinKkwiLigs/lX/56NldJzua4MeBgY+aeoAAAADAf0FzZLWLFy/++PGj5NvTSdtMOTzbY/nV/1IYG+TpG/6qsnYmUQUUUYar7lcVnArCpmuyuP2839IYi+PdjdkVdSfxsw3d2CydJbfLMZPqO4jLHeSTymBMp+wxl6L0FkUVVUeU4mshQ+ksiS6TLEKc62/D4/TxfF1dEy1/ftZr99mEgooymzjx6Cyrwc4Bf1c+Tr/Z0ZfD0ll6u7JGKopdpU9Rhm4PK39msk47qJOI3XPzC3FFPI1FWOULFVAm87C1NEv113N5Vc9/v99Shqhf6aTfnVw0wnq4o8/jxst0tdWtgGKMcdnVOZokx3Trq6qjTtreh6865XwhxrjowlRVXu8tiQ1U+L5cAWUyj44QCmwOpzMYl9911eN2cI0pr7+Dr8k/PlpACiecLqy37/R9Q7iU/qpYEZOXGH3l8tWY14VMeaRLa5bUyOCCqq1K4zb+IuB3dbtXzGSHObfjqNodedtQkbIswrl+BVT8dL0Jm204csawTgocAhGkdKteDltvpDdY5RTFrtKn2L0aPEMAAADAf1yzVECzs7M3bdokeR2UkFNT5YmiD2w6m5BVUS2TMZmwaJalDqcJL0rp2tgZV91SIug3tI+UKP7+46riG6XTSZdChEAoS7Bat2vNQoSsUJbAxcUlGKGCqMt3y9QHWXVhlVYqVxo8rCuZEhmZTEsWIU9VXY6OO7Yt6P6HEowQQuyOdgvm2hkIKspsLN1ffS9c3le9lpBU19bi4OyPORU1MJz7KPY1o2o2oHNlwZNQtHKwUqp5cxqPsBGihHtxJeweg/vJoqoIBlt2aWDMPNlqtOe50L/8Zxv98+XBLFUNVRadlZlVESL9PDjwgZzN2IEyCCHp/qOthA+Djj9vQpWbST1z7AoeONZahUCI3XXUiDZvQwKjSxt/Yg3xq/hnJSy9Lp359Xaen5fHkEJ5ISl+4jvJ0sJyhv9rmhDKCQk6P7ewalwYt8vSQxv7vN3mtMTdZc4R0Zg9vo7aEk9LZfJy8hjx89vPtKbsCAkNPb5rjkHGKddhlm63G7jTiepobMijX8Q/b2AtKQAAAPAf11y3qDQpByUUR2/eM1kzfuuoLmpKrbtbT1vpE/Yiv4kjQllabbVqUgGOqroCUZL1sahyLyRfiosQQbJIguBwOQRCJElWlH8Rnfn+Qzn9zsdCll9NWndxVDmTnprOSBYhb/Af+126pPo59tJS1DCycFi640xcVu2rp6Wv/1o/eXCXtipyMnw+jyccF/IJo6oxqEx2ZhbDUlZTqTkAdjudmsxGgggbIc7KzEECVRXp6uvOpLKqcnPfoMTQDCJIkkUghJDoUWBQgtDcwqAkKysrK6vEYNAAwdPgIMmvMTNvTh6LIn6x7Imys7KysvK1BgzSTD0dFFnchIjo9NQ0mqWmqSZh1ljxDtW+WM/Wm+231Tx1n/txwnHfzpFqTVjFQHVZEvb4SdLzyH2ujiOsrMfO2XI+wqM/K2G3x+ms+p92trqmClGanpYHs3IBAAD8dJoxBcnOzvbz85NsW67epIOP3r2OPum9YFirnGu7XWyMu0449qYpa0ARi/q8ZkcgRFRnB8TX8gSCJBGr3dQjt+58Lvrc4q5V+2wsQlar4Z63UlIe/LV3xaiO5Q8OuY7uYWizM76iPIfzLroMGrX6Ypn5qqOXomMfxcXd2zFMqlZIDK6XZeDa/yRJhF+HUd1XoOkmnd5vIE79+wNNqmmqkgihsjsBxxNFmYHjWytX0J50IluUeCIoRsJWnPTz4wH3yorC53ZUqdiBhpXPG1H6uYCIgibEVFZahggej1vvAVJOQZ5k8rJzGXYfz2QxFsW7d6GY3OwcTMkryNZ6r3BRckJyIcFCmQkPU5rURpSQ1tDrrK8tV5P8Uu1H2HWlip8lJNVPwwkej0fgstJSSEABAAD8dJqxDZOioqKTk5Pk25My2qaj5pqOmruOybnjbmOx8Q/vueO9zNgIESRBIKZ2klZekF9S53uZyUzLZJBi5Zd7eUZaNpZWUZGRoEDFUtVuxcOJYvmuvXtLfVuEFQieuonNDBObGW64KGHXWPPFqz0uTg+0l0ZlUcEn/2YN2B283akViRBCODuGoWsOgJRXkCOZV1k5DEKVByB6m/yORtpNjPCLKAUlOVSYkfEJI07FKaHfp7xv3gy07H5EZDbZplcvDRKhT9cDTr5TGe11eGbn6vxLFLfTccWpwKgNfQfXuyJej+hRUGACf/Das66m1dkjnXx0ztzQwLCcEeMVJKtEElw+D+HS0jKEeHUeke/UWRPdevIsH3dXrNwZkxaf8JHUNdKvCQ9nh//m5Js91Ocv02Pj1051H3hr0y8yEr00QuKi9L//LpHr2LamNxYuKS7BBI/HrR8+Li0txQSPx4M+TAAAAH46zVUBVVRUXLFihZKSkgTb4ty7fssX+d6rXsxHKnQfYqpKlJeVV+RohFBBDhWnp1Vf8y68de1+3R7n4qfhl1KqMqqiWxG3izldexlLtIpUYDbUTDo/3P9sWnVOWP704KL5Hpf+rlqj2UiEpU+C3Vy2Xau+WkrI6A/p15YUlVc8ThcXlyOumoZi5ekWJwX4R5Uhmqm8fE4oGRiqo7Tb0UmVB4BzwoPCPtZcXG80wsawDUyMuOX3r0RWnUNx4vnzzxq4+s28D3GxGWrlsPvxP7v9Ghfe81jml8zpNm1yNwqh/IiAs5nKNk7OloNrDJs1fZjch7OBV4sa319ZTODxV3zzyXOsau3AcspMO+3CS4F/ZUpaJSTVNNRYdHpqev3cm93N1rpV2fUjQclVR14ad8j/Lu40wrZjVc6M088smHmkxHaHj5PVkv3uPd94TltxVdJr5PRrH7tORgOWhuVUP6E4NuBEPKPWp1/H+n8JitJSMzFfTV0OElAAAAA/nWapgDYl+0QIETK89Kv7N55LzXOb+ktbOfLT+9iQLYdT204e16sif2QbDjBT9jqxxz3ExLWfyqeEE2s2PlZQJAtrripjjFhqmUcnOhOuE7sKc6L3LPdPUx3rPUaTRKjxMh+hPnGt64GBa+ZYTU1fMdFYNu9ZxIFtPtGCuSM2EJJFyJEuuHdslX9SnvvsQR2U2KUZTy54e8cp2y0zl0YIIX73vt14ZyN8dlzXd9AqjD+71SOm83DdWyHxkTeTTE3bKcuwezo46Pts2jJ1kdracbr0izNbfNL1O7IjJY4Q5z08FXw7g0Yl997QSJQY5rs7lUIszX6T7IwEBEKEmv0Mu9Xjjs8fr5Uzq69iQWygVzjXUEB8qHtlHhclx0RcilVut/QbxvAwabeO7qEURAXv4yNOhNx8LzvEc/8CfRbCWaHHQnOVRtmZfV7plDG3t5QLOh8Ynmc9+ut5VvGNYydTeANWW35e6eT0sBuu5b0/8Eyq4+xWkvwxReka6fPpK4+flSI96TqP8cyWrrU9NdV1iG3KvNFGgux7AV77n2pPPze/6n4s5l3A3Hkn8JjgXRM0SYQ6zd+/4UKvxU6LLO4dslUmEPqUdPPqk4r7ysSP35YiJvXeX+dYbIRIJaPBfdtJdZi6ctLe0UcmDfg0d8awTrKfkq4e2R30RHH4weXm9SvA4hdxCaWsjkb6DdwpBgAAAPzXNcet9U3qwYQxxlj0/sqWKQM7awi5LBZbRrVj/183htdu406nX1lr30Vdmk3xFHUHzj36OPoPI7b0+NOVbZiiFrZhCSYEJ4QsGdpJmU9x5dr2mb43Nr+yBVK8u3HlthW9l4b6ZTIYfzo+isfuvfVVZZcbJuf+/vnDjDRluRRboGFoOWtX1GftcRqLkMm64zN7qHFreT7FYksptTcd8/upFzWN4ktfBMw2ayvkUDyF9v2cDzwqKEvYadVamiOt4XiqordT6cvjCyz0lPhcaZVOQxYGPXnq2ZfD7unxsjqIr0YofrG5Z/1MhdPPu7qrOmZyYnZONm0j5FJ8pU5Dl/35Kny2JqXsFP4dG9EjhBAiCEpKobXx0JnbI95WvD906n5LaVJl8vmiek/LPz1BgRSOOJZZqyt8A22Y8s44KJPS1ocy6nWuL410acPi9vFMous+0jAmda8Fn6U563JJgw8XPT++zM5ES8jl8BXbmU5cfzGl+jSIkvYOVWRrT/2zVqziJF9LBUp9TNB7GmPxq629G84WOWZebyriK0sJ3zx5QCc1GTaLklbR6++44UJygw33xS8292RL1rQeAAAA+M8hcP3bX8APgH66vmfXdUKv5CtzNFtymuZPD2cGjNKbEm1z6uVRux/36rbowaquptv47o9iVupL3OYJAAAA+K+A3ObHgHNjDqyYv+J49SLQzJjbiYyaQedmb5X0/4ZQGb18Vse805v2NrQE9seA009s3PdSafRy506QfQIAAPgZQXrzYyBkpD5ePbRl9oTZu85cvhrqt2T8igjGxNnpl6b04gcS4fVY5jld45HH4gOvm7sR1TfBWaErV53HQ9ZtsFf6YUu0AAAAwD8Bl+B/GOLUy1tcVx8Mf/R3ISmnbTJ0hvuWJeYNjRQH/xjOj1zad9ghxXVRl5YY1O8J+m9iUo9P7OV4s/fhuyHVg7MAAACAnwwkoAAAAAAAoEVBiQUAAAAAALQoSEABAAAAAECLggQUAAAAAAC0KEhAAQAAAABAi4IEFAAAAAAAtChIQAEAAAAAQIuCBBQAAAAAALQoSEABAAAAAECLggQUAAAAAAC0KEhAAQAAAABAi/ofqBf5S3jKI50AAAAASUVORK5CYII=;" vertex="1" parent="1">
          <mxGeometry x="20" y="150" width="896" height="180" as="geometry" />
        </mxCell>
        <mxCell id="jgpR0F6Lxqmnsb9gorQD-2" value="" style="rounded=0;whiteSpace=wrap;html=1;fillColor=none;strokeWidth=3;rotation=0;strokeColor=#4682B4;" vertex="1" parent="1">
          <mxGeometry x="20" y="170" width="900" height="107.5" as="geometry" />
        </mxCell>
        <mxCell id="jgpR0F6Lxqmnsb9gorQD-3" value="" style="rounded=0;whiteSpace=wrap;html=1;fillColor=none;strokeWidth=3;rotation=0;strokeColor=#CCCC00;" vertex="1" parent="1">
          <mxGeometry x="20" y="280.5" width="900" height="39.5" as="geometry" />
        </mxCell>
        <mxCell id="jgpR0F6Lxqmnsb9gorQD-5" value="&lt;font style=&quot;color: rgb(70, 130, 180);&quot; face=&quot;Courier New&quot;&gt;&lt;font&gt;&lt;b&gt;&lt;i&gt;HEADER&lt;/i&gt;&lt;/b&gt;&lt;/font&gt;&lt;/font&gt;" style="text;html=1;align=center;verticalAlign=middle;resizable=0;points=[];autosize=1;strokeColor=none;fillColor=none;fontFamily=Georgia;fontSize=24;" vertex="1" parent="1">
          <mxGeometry x="806" y="170" width="110" height="50" as="geometry" />
        </mxCell>
        <mxCell id="jgpR0F6Lxqmnsb9gorQD-6" value="&lt;b style=&quot;color: rgb(204, 204, 0);&quot;&gt;&lt;i&gt;&lt;font face=&quot;Courier New&quot;&gt;SOTTOMESSAGGI&lt;/font&gt;&lt;/i&gt;&lt;/b&gt;" style="text;html=1;align=center;verticalAlign=middle;resizable=0;points=[];autosize=1;strokeColor=none;fillColor=none;fontSize=24;" vertex="1" parent="1">
          <mxGeometry x="710" y="275.25" width="210" height="50" as="geometry" />
        </mxCell>
      </root>
    </mxGraphModel>
  </diagram>
</mxfile>
